<?xml version="1.0" standalone="no"?>
<!DOCTYPE svg PUBLIC "-//W3C//DTD SVG 1.1//EN" "http://www.w3.org/Graphics/SVG/1.1/DTD/svg11.dtd" >
<svg xmlns="http://www.w3.org/2000/svg">
<metadata></metadata>
<defs>
<font id="commonsregular" horiz-adv-x="1253" >
<font-face units-per-em="2048" ascent="1638" descent="-410" />
<missing-glyph horiz-adv-x="593" />
<glyph unicode="&#xd;" horiz-adv-x="593" />
<glyph unicode=" "  horiz-adv-x="593" />
<glyph unicode="&#x09;" horiz-adv-x="593" />
<glyph unicode="&#xa0;" horiz-adv-x="593" />
<glyph unicode="!" horiz-adv-x="571" d="M74 1454q68 -385 84 -517t16 -284l12 -213l273 35q0 291 11 540t42 492zM109 162q0 80 56 132t144 52q49 0 103 -18q25 -6 47 -23q68 -49 67 -131q0 -76 -63 -137q-20 -18 -45 -31.5t-47.5 -18.5t-43 -7.5t-34.5 -2.5q-86 0 -135 49.5t-49 135.5z" />
<glyph unicode="&#x22;" horiz-adv-x="811" d="M70 971l45 504h258l-45 -504h-258zM438 971l45 504h258l-45 -504h-258z" />
<glyph unicode="$" horiz-adv-x="1191" d="M59 1079q12 123 73 214t150 141.5t187 50.5v135h330v-160l45 -2l43 -2q35 0 61.5 -3t134.5 -19v-66v-68q0 -141 13 -286l-256 4l-11 59l-2 6l-14 52q-18 63 -56 91.5t-112 28.5q-31 0 -72 -6l-38 -8q-43 -14 -69 -47t-26 -74q0 -29 18.5 -61.5t53.5 -54t127 -54.5l70 -26 q106 -41 161 -70q137 -70 192.5 -145.5t67.5 -212.5q2 -14 3 -27v-27q0 -20 -1.5 -36.5t-9.5 -67.5q-29 -133 -112.5 -223t-204.5 -123l-31 -8v-129h-325v120l-41 7l-29 4l-76 10l-108 14l-76 8l-6 121l-7 119l-4 117l-4 114l242 -4v-34q18 -203 235 -203q53 0 94.5 17.5 t63 47t21.5 64.5q0 27 -21.5 61.5t-62.5 59t-123 47.5q-217 61 -320.5 138t-146.5 202q-14 39 -17.5 76.5t-3.5 117.5z" />
<glyph unicode="%" horiz-adv-x="1998" d="M49 1010v116q37 297 334 338q16 2 31.5 3t36.5 1h32q25 -4 35 -4q303 -39 336 -338q4 -14 4 -29.5v-29.5v-23q0 -12 -4 -36q-37 -301 -336 -342q-16 -4 -35.5 -4h-29.5h-25q-14 0 -43 4q-152 20 -233.5 104t-102.5 240zM356 997q0 -41 29 -71.5t72 -30.5q76 0 88 100 l2 23v94q0 68 -41 102q-29 23 -60 23q-43 0 -69 -39q-6 -10 -11.5 -26.5t-7.5 -34.5v-119q-2 -6 -2 -21zM553 -20l649 1521h271l-662 -1521h-258zM1143 414q0 27 2 35q37 297 334 337q16 2 31.5 3.5t35.5 1.5h33q25 -4 35 -5q303 -39 336 -337q4 -37 4 -56v-39 q-4 -18 -4 -24q-37 -301 -336 -340q-16 -4 -37 -4h-31h-24q-12 0 -41 4q-297 39 -336 340q0 20 -1 41.5t-1 42.5zM1454 340q0 -66 24.5 -94.5t73.5 -28.5q76 0 88 98l2 25v96q0 68 -40 101q-12 12 -25 14q-16 8 -37 8q-63 0 -80 -70l-6 -53v-96z" />
<glyph unicode="&#x26;" horiz-adv-x="1527" d="M55 385q0 59 19 125q29 102 80 165.5t157 127.5q20 12 31 18q21 13 33 17l-33 45q-49 80 -69.5 134t-20.5 109q0 12 2 30t2 26q20 147 135 233t316 86h41.5t50.5 -4q152 -16 233.5 -77.5t114.5 -184.5l12 -80q0 -111 -53 -205t-172 -168l-70 -37q8 -16 58.5 -79.5 t76.5 -87.5q109 86 170 210l236 -147q-88 -160 -207 -299q68 -88 150 -177t165 -165l-442 -2q-49 80 -108 135l-50 -31q-117 -70 -218 -99.5t-206 -29.5q-186 0 -310 120t-124 292zM432 408q0 -47 25.5 -85t68.5 -53q18 -6 40 -10t34 -4q25 0 43.5 5t36.5 15l92 56 q-35 37 -63.5 69.5t-56 74.5t-39 61.5t-31.5 62.5q-23 -9 -43 -25q-61 -39 -90 -98q-16 -31 -17 -69zM616 1133q0 -20 7 -50q18 -70 69 -108l41 24q33 25 55.5 56.5t30.5 60.5t8 49q0 94 -98 95q-49 0 -81 -34t-32 -93z" />
<glyph unicode="'" horiz-adv-x="442" d="M70 971l45 504h258l-45 -504h-258z" />
<glyph unicode="(" horiz-adv-x="698" d="M74 612q0 385 274 801q59 92 139 178h195q-41 -98 -74 -215q-66 -223 -98.5 -406.5t-32.5 -353.5q0 -328 139 -776l68 -192h-190q-74 78 -148 180q-272 399 -272 784z" />
<glyph unicode=")" horiz-adv-x="698" d="M14 1591h191q74 -78 147 -180q272 -397 273 -784q0 -391 -275 -801q-59 -92 -139 -178h-193q45 119 72 215q66 223 98.5 406.5t32.5 353.5q0 328 -139 776z" />
<glyph unicode="*" horiz-adv-x="978" d="M45 1024q29 72 51.5 154t36.5 161q139 -111 285 -174l-17 66q-23 90 -37 137t-40 125l82 -8h65h51q37 0 74 2t76 8l-43 -78q-53 -119 -66 -243q143 68 252 186q18 -86 50 -172t69 -162l-78 10q-31 4 -92.5 6t-91.5 2h-62q117 -104 252 -186q-76 -39 -147 -92 q-53 -39 -68 -51q-25 -20 -63 -60l-37 146q-8 35 -17.5 65.5t-27.5 81.5q-45 -76 -67.5 -148.5t-22.5 -150.5q-133 109 -279 176q127 115 264 215q-166 0 -352 -16z" />
<glyph unicode="," horiz-adv-x="526" d="M51 129q0 20 4 42t17 46q37 76 112 102q16 8 41 12.5t43 4.5q86 0 146.5 -54.5t60.5 -138.5q2 -20 2 -30q0 -82 -41 -174q-47 -106 -147 -238q-23 -29 -33 -41t-37 -37l-156 117q53 57 94.5 112.5t78.5 122.5q-25 -4 -41 -2q-63 0 -103.5 44t-40.5 112z" />
<glyph unicode="-" horiz-adv-x="841" d="M45 512q78 156 78 315h674q-59 -145 -82 -315l-160 8q-86 0 -290 -4t-220 -4z" />
<glyph unicode="." horiz-adv-x="520" d="M51 162q0 80 56.5 132t144.5 52q49 0 102 -18q25 -6 47 -23q68 -49 68 -131q0 -76 -63 -137q-20 -18 -45 -31.5t-47.5 -18.5t-43 -7.5t-34.5 -2.5q-86 0 -135.5 49.5t-49.5 135.5z" />
<glyph unicode="/" horiz-adv-x="1128" d="M14 -123l860 1688h240l-848 -1688h-252z" />
<glyph unicode="0" horiz-adv-x="1271" d="M59 782q0 319 105 488q96 156 295 194q119 23 213 23q272 0 406 -177t134 -546v-41l-6 -176q0 -289 -142 -435.5t-413 -146.5q-309 0 -444 154q-145 166 -146 563zM440 727q0 -82 29 -241.5t49 -190.5q43 -68 123 -68q37 0 64 21q63 47 100 225q29 139 29 254 q0 121 -27 248q-37 174 -102 223q-27 20 -64 21q-76 0 -123 -68q-37 -51 -57.5 -188.5t-20.5 -235.5z" />
<glyph unicode="1" horiz-adv-x="1271" d="M104 1229l37 14l95 35q135 53 211.5 97t148.5 110h260q-23 -61 -22 -121l2 -72v-1292h-369v1135l-57 -39l-58 -37l-67 -45l-68 -43z" />
<glyph unicode="2" horiz-adv-x="1273" d="M68 1124q12 47 36 93q72 143 188 217.5t281 74.5q211 0 345.5 -74.5t193.5 -222.5q16 -45 25.5 -91t9.5 -91q0 -76 -24.5 -140.5t-69.5 -107.5l-516 -483h172h104q41 8 64.5 39t50.5 108l6 25l240 -2l-23 -109q-16 -102 -27.5 -192t-11.5 -168h-1028l-2 258l553 598 l49 59l8 11l33 35q41 41 41 88q0 45 -45 96t-127 51q-61 0 -93 -21.5t-79 -95.5l-8 -12l-27 -39l-8 -14l-21 -33z" />
<glyph unicode="3" horiz-adv-x="1273" d="M78 172l160 225l67 -43q174 -106 295 -106q98 0 172 69q63 57 64 123q0 82 -97 135q-16 8 -41.5 12.5t-72.5 4.5h-82h-64l-37 -2q-25 0 -46 -1t-91 -9l-6 319q29 -4 53.5 -6t57.5 -2h70.5t64.5 2q72 8 103.5 18.5t51.5 32.5q51 51 52 103q0 33 -23 73q-43 72 -121 72 q-41 0 -86 -14q-33 -8 -58.5 -22.5t-86.5 -63.5l-82 -62l-174 223l51 45q115 90 200 131t152.5 50.5t116.5 9.5q90 0 159.5 -20.5t123.5 -57.5q68 -49 107.5 -95t58.5 -93q27 -76 26 -136q0 -143 -141 -260l-33 -24q61 -27 109 -70q123 -113 123 -293q0 -63 -19 -129 q-45 -152 -195.5 -245t-377.5 -93q-264 0 -455 156z" />
<glyph unicode="4" horiz-adv-x="1271" d="M6 616l586 693l65 86l70 98h309v-858h158v-283h-158v-352h-368v354h-555zM393 635h297v364l-22 -34l-72 -97z" />
<glyph unicode="5" horiz-adv-x="1273" d="M47 182l170 244l51 -37q20 -16 53 -35.5t50 -27.5q109 -57 186 -58q72 0 133 49q49 39 70.5 84t21.5 101q0 82 -59 135t-127 53q-59 0 -108.5 -40t-79.5 -118l-9 -24l-254 190q31 72 42.5 127.5t11.5 180.5l18 469h870q0 -96 9.5 -190.5t25.5 -217.5h-284l-4 18 q-20 70 -43 88.5t-89 18.5h-159l2 -74q0 -96 -27 -203q86 27 158 27q131 0 202.5 -24.5t143.5 -94t103.5 -139.5t31.5 -166q0 -166 -61.5 -278.5t-210.5 -196.5q-133 -76 -312 -76h-73q-33 6 -47 8q-182 25 -361 168z" />
<glyph unicode="6" horiz-adv-x="1271" d="M86 500q0 76 16 174q27 158 136 323q119 180 344 392q29 27 60.5 55t72.5 55l321 -117q-246 -203 -430 -450q59 27 121 26q29 0 76 -6q174 -20 277.5 -136t103.5 -296q0 -90 -27 -184q-90 -317 -416 -356q-27 -4 -62.5 -6.5t-64.5 -2.5q-250 0 -389 139.5t-139 389.5z M442 449q0 -35 2 -43q43 -168 170 -168q35 0 86.5 14t84 52t46.5 112q6 41 7 73q0 98 -54.5 148.5t-154.5 50.5q-68 -6 -112 -31.5t-62 -66.5q-4 -14 -8.5 -64.5t-4.5 -76.5z" />
<glyph unicode="7" horiz-adv-x="1271" d="M86 1042l14 439h918l158 -213q-266 -692 -680 -1319l-293 149q39 66 104 185q51 94 103 188q86 160 102 188l242 476l53 43l-70 2l-215 -6q-94 0 -145 -37t-51 -95h-240z" />
<glyph unicode="8" horiz-adv-x="1271" d="M59 389q0 59 23 131q31 90 83 148.5t136 91.5l-47 39q-135 123 -135 280q0 41 10 99q31 156 167 245.5t368 89.5q88 0 163.5 -17t126.5 -48q88 -49 137.5 -112.5t60.5 -132t11 -109.5q0 -162 -137 -293l-39 -33l57 -43q160 -133 160 -299q0 -66 -24 -143 q-53 -160 -162 -235t-311 -75l-119 -2q-242 0 -389 125q-139 117 -140 293zM430 438q0 -12 5 -42.5t24 -61.5q45 -80 151 -88q135 0 178 84q18 37 19 67q0 43 -37 87t-127 110l-35 24l-57 -26q-121 -57 -121 -154zM512 1118q0 -29 13.5 -59.5t39.5 -61.5q14 -18 64 -53 q35 -27 57 -39q76 35 109 117q10 27 10 53q2 16 2 25q0 143 -148 143q-31 0 -67 -10q-80 -31 -80 -115z" />
<glyph unicode="9" horiz-adv-x="1271" d="M70 954q0 88 26 181q90 317 416 356q59 8 129 8q250 0 389 -139t139 -389q0 -76 -16 -174q-31 -162 -135 -324q-117 -178 -346 -391q-8 -8 -78 -64q-20 -16 -55 -47l-322 117q242 195 430 451q-59 -27 -121 -27q-29 0 -75 6q-172 20 -276.5 138t-104.5 298zM418 981 q0 -98 54 -148.5t153 -50.5q68 6 111.5 32t64.5 67q6 16 8 75.5t2 63.5q0 37 -2 45q-39 168 -170 168q-35 0 -78 -12q-115 -29 -137 -166q-6 -41 -6 -74z" />
<glyph unicode=":" horiz-adv-x="536" d="M74 162q0 78 57 131t145 53q47 0 101 -18q25 -6 47 -23q68 -49 68 -131q0 -76 -64 -137q-20 -18 -45 -31.5t-56.5 -21t-68.5 -7.5q-86 0 -135 49.5t-49 135.5zM74 942q0 78 57 131t145 53q47 0 101 -18q33 -12 47 -23q68 -49 68 -131q0 -76 -64 -137q-20 -18 -45 -31.5 t-47.5 -18.5t-43 -7t-34.5 -2q-86 0 -135 49t-49 135z" />
<glyph unicode=";" horiz-adv-x="542" d="M74 129q0 20 4 42t16 46q37 76 113 102q16 8 40.5 12.5t43.5 4.5q86 0 146.5 -54.5t60.5 -138.5q2 -20 2 -30q0 -82 -41 -174q-47 -106 -148 -238l-69 -78l-156 117q53 57 94 112.5t78 122.5q-25 -4 -41 -2q-63 0 -103 44t-40 112zM74 942q0 80 58 132t147 52q33 0 49 -2 t49 -14q55 -20 86 -61t31 -93q0 -41 -23 -82q-43 -86 -143 -108q-33 -8 -70 -8q-86 0 -135 49t-49 135z" />
<glyph unicode="?" horiz-adv-x="999" d="M14 1116l236 -190l31 55q35 53 67 86q45 45 65.5 62.5t40 27.5t38.5 10q57 0 73 -69q6 -20 2 -47q-4 -45 -20.5 -72t-69.5 -74l-55 -51l-80 -94l-33 -39q-55 -76 -77.5 -123t-22.5 -88q0 -35 20 -92l21 -41l375 86q-39 39 -39 80q0 57 65 137l13 14l61 62l92 94 q125 125 125 272q0 135 -117 262q-102 109 -268 109q-100 0 -202.5 -45t-196 -136.5t-144.5 -195.5zM229 160q0 80 57.5 133t147.5 53q47 0 101 -18l45 -25q68 -47 67 -131q0 -76 -61 -137q-43 -39 -88 -49.5t-82 -10.5q-86 0 -136.5 50.5t-50.5 134.5z" />
<glyph unicode="A" horiz-adv-x="1394" d="M-33 0l8 176q0 8 17 8q20 0 24 2q23 10 40.5 31t31.5 66l412 1106q4 14 10 37.5t10 48.5h361q16 0 16 -31q0 -45 2 -51l410 -1145q16 -51 86 -68l24 -4l-8 -180h-571l8 180q16 2 20 2q67 12 67 55q0 9 -3 19l-45 139h-432l-33 -96q-12 -35 -12 -57q0 -47 79 -60l15 -2 l-4 -176h-533zM535 651h290l-125 350l-22 84q-4 -41 -7 -55t-12 -31z" />
<glyph unicode="B" horiz-adv-x="1306" d="M14 0l9 176l28 4q47 10 63.5 41t16.5 117v784q0 94 -19.5 130t-72.5 44l-25 2l9 177q209 0 370.5 2t317.5 4q131 0 214 -28t146.5 -99.5t81.5 -159.5q12 -59 12 -109q0 -111 -61 -190q-53 -66 -123 -92q20 -6 35.5 -12.5t34.5 -16.5q100 -51 156.5 -142t56.5 -202 q0 -29 -6.5 -61.5t-8.5 -44.5q-25 -102 -98 -183q-90 -98 -222 -120.5t-583 -22.5zM498 1124l2 -198q0 -27 43 -27h57q125 0 177 44t52 144q0 68 -48 108t-138 40q-86 0 -115.5 -23.5t-29.5 -87.5zM500 397q0 -70 35.5 -111.5t115.5 -41.5l56 4q145 23 165 147q6 29 7 54 q0 178 -261 178l-63 -4l-29 -2l-26 -5v-219z" />
<glyph unicode="C" horiz-adv-x="1257" d="M59 772q0 385 188.5 558t577.5 173l88 -8l68 -8l70 -8l96 -4l8 -101l6 -102l8 -119l11 -121l-254 6l-4 25q-41 160 -172 160q-43 0 -88 -15q-100 -33 -153.5 -150.5t-53.5 -340.5q0 -61 3 -90t17 -82q63 -262 250 -262q78 0 168 50t149 99l39 35l176 -252l-55 -47 q-119 -90 -210 -134t-166.5 -53.5t-145.5 -9.5q-297 0 -459 202t-162 599z" />
<glyph unicode="D" horiz-adv-x="1382" d="M14 0l9 176l22 2q49 10 68.5 36t19.5 85v864l-2 19q-8 59 -27.5 82.5t-70.5 31.5l-19 2l9 177q92 0 249.5 -2.5t286.5 -2.5l141 9q43 0 83 -1t87 -12q195 -41 305.5 -181t139.5 -396q2 -18 4 -62.5t2 -109.5v-58q0 -342 -166 -501.5t-500 -159.5l-329 12q-39 0 -157 -5 t-155 -5zM502 416q0 -80 35.5 -103.5t150.5 -23.5q135 0 187.5 94t52.5 348l-6 129q-18 160 -56.5 227.5t-122.5 90.5q-39 10 -81 10q-43 0 -72 -12q-88 -39 -88 -150v-610z" />
<glyph unicode="E" horiz-adv-x="1210" d="M14 0l9 176q20 0 30 4q39 10 57.5 40t18.5 95l2 805v33q-6 51 -17.5 80t-36 47t-63.5 18l9 177h1062l15 -164q12 -115 37 -238h-232l-12 49l-6 17l-6 14q-16 37 -39 46t-99 9h-118q-41 0 -59.5 -8t-42 -40t-23.5 -89v-172h514l-13 -281h-501v-223q0 -84 20.5 -108.5 t102.5 -38.5l30 -2h76q96 0 128 25.5t61 127.5l14 54h233q-33 -162 -43 -226q-18 -121 -18 -227h-1090z" />
<glyph unicode="F" horiz-adv-x="1124" d="M14 0l9 176l24 2q33 6 53.5 22.5t26.5 37.5l2 69l4 817q0 96 -15.5 127t-70.5 43l-33 4l9 177h1067q0 -98 9 -189.5t25 -218.5l-247 6l-7 29q-35 94 -125 112l-30 3h-103q-39 0 -80 -39q-29 -33 -28 -80v-19l-2 -39v-166h512l-19 -280h-493v-287q0 -76 20.5 -101.5 t85.5 -25.5l41 -4l-8 -176h-627z" />
<glyph unicode="G" horiz-adv-x="1390" d="M59 774q0 229 87 389t262 258q84 47 193.5 65.5t289.5 18.5q51 0 111.5 -8t96.5 -13t142 -5l6 -84q0 -88 10 -176q4 -29 27 -177l-258 2l-6 23q-31 98 -84 128t-184 30q-123 0 -193 -85t-92 -266l-6 -102q0 -139 23.5 -246.5t65.5 -171t103 -88.5q80 -33 138 -33 q86 0 131 78q8 16 13 37t5 49q0 152 -90 168q-20 4 -31 2l6 178h566l-9 -178q-55 0 -87.5 -47t-32.5 -149v-150v-106q0 -16 2 -55.5t2 -57.5l-103 2l-192 -18l-53 -4q-451 0 -648 170q-211 182 -211 622z" />
<glyph unicode="H" horiz-adv-x="1447" d="M14 0l9 176l18 2q53 10 70.5 34t17.5 89l4 856l2 33q0 47 -18.5 70.5t-69.5 33.5l-33 4l9 177h593l-8 -177q-20 0 -43.5 -5t-44.5 -38q-12 -14 -16 -41l-2 -6v-57v-233h444v258v47l-4 24q-10 25 -29.5 37t-56.5 12l-22 2l6 177h594l-9 -177q-37 -6 -62.5 -28.5t-35.5 -44 t-10 -58.5v-850v-36l2 -13q0 -57 76 -86l35 -6l-5 -176h-591l4 176l26 2q82 16 82 125v334h-444v-330l2 -51q0 -59 80 -76l30 -4l-8 -176h-592z" />
<glyph unicode="I" horiz-adv-x="634" d="M14 0l9 176l14 4q55 16 71.5 33.5t22.5 71.5l2 28v844q0 66 -18.5 96.5t-67.5 40.5l-33 4l9 177h598l-7 -177q-23 0 -32 -4q-80 -18 -80 -135v-823v-31q0 -63 16.5 -87.5t65.5 -37.5l32 -4l-6 -176h-596z" />
<glyph unicode="J" horiz-adv-x="628" d="M14 1298l9 177h591l-6 -177q-53 0 -86 -42t-33 -123l11 -951q0 -186 -9.5 -253.5t-46.5 -151.5q-84 -186 -243 -291l-107 68q25 51 31 98l4 69l2 15l2 24v13v69l-2 1325v19l-2 39q0 71 -78 71h-2l-26 2h-9z" />
<glyph unicode="K" horiz-adv-x="1298" d="M14 0l9 176l26 4q43 10 60.5 31.5t23.5 73.5l2 24l-4 848q0 80 -19.5 105.5t-80.5 33.5l-17 2l9 177h567l-8 -177q-33 4 -56.5 -20.5t-23.5 -77.5l-2 -16v-281l248 289l32 37l8 20q0 47 -71 47h-10l8 179h530l-6 -177l-432 -428l389 -620q45 -74 131 -74l-8 -176h-401 l-347 598l-71 -84v-176l2 -29q8 -76 23.5 -99.5t64.5 -31.5l14 -2l-8 -176h-582z" />
<glyph unicode="L" horiz-adv-x="1138" d="M14 0l9 176l16 2q53 10 70.5 29.5t25.5 77.5v20v869l-2 24q-8 86 -94 98l-25 2l9 177h610l-6 -177l-11 -2l-30 -2q-49 -8 -66.5 -32.5t-17.5 -94.5l2 -751q0 -106 20.5 -133t102.5 -27h37h20q88 0 127 30.5t63 125.5l13 41l2 14l250 -2l-37 -205q-4 -23 -18.5 -114 t-20.5 -146h-1049z" />
<glyph unicode="M" horiz-adv-x="1894" d="M-14 0l8 176l14 2q45 6 62.5 16.5t23.5 36.5l10 66l127 819l2 17l5 43q0 55 -17.5 80.5t-66.5 37.5q-10 4 -35 4l6 177h549q0 -104 49 -244l57 -170q31 -88 64 -193q27 -82 35 -118l4 -17l18 -90l27 -135l6 65q14 123 38.5 222.5t71.5 212.5l80 192l6 27q0 25 -16 40 t-63 29l-11 2v177h602q0 -27 -1 -48.5t-1 -37.5l23 -162l113 -887l8 -68q6 -47 21.5 -64.5t58.5 -27.5l30 -4l-6 -176h-575l8 170h18q82 14 82 94v64v14l-35 473l-4 80l-10 143q-10 -106 -32.5 -186t-92.5 -256l-182 -426l-16 -37q-10 -27 -20.5 -61.5t-20.5 -71.5h-222 q-6 43 -15 72.5t-38 99.5l-69 188q-59 166 -86 273q-35 137 -53.5 226t-18.5 167v-86t2 -86l-16 -158l-29 -397q0 -72 11 -91.5t67 -29.5l20 -2l-8 -176h-567z" />
<glyph unicode="N" horiz-adv-x="1452" d="M14 0l9 176l22 4q51 10 68.5 42t17.5 116v836q0 66 -15.5 89t-62.5 29l-26 4l-13 2l9 177h518q8 -27 13 -42.5t15 -35.5l52 -90l297 -609l65 -135q6 -10 21 -47q25 -59 32 -82l-22 135q-12 100 -18.5 185.5t-6.5 130.5v248l-4 30q-10 61 -43 96t-80 39l8 177h568l-8 -177 l-19 -4q-53 -10 -68.5 -26.5t-19.5 -71.5l-2 -33v-968v-99v-39l2 -6q0 -23 12 -51h-387l-456 842l-29 69l-10 19l-19 43l6 -49l9 -52l12 -118v-371v-35q0 -90 27.5 -127t91.5 -43l24 -2l-8 -176h-582z" />
<glyph unicode="O" horiz-adv-x="1480" d="M59 754q0 307 189 524q199 229 512 229q53 0 125 -10q233 -35 379 -199q154 -174 153 -434q0 -889 -702 -889q-59 0 -127 7q-268 27 -408 262q-121 203 -121 510zM461 748q0 -207 52.5 -312.5t156.5 -134.5q43 -12 82 -12q127 0 196.5 134t69.5 406q0 170 -79 264.5 t-202 94.5q-133 0 -204.5 -107.5t-71.5 -332.5z" />
<glyph unicode="P" horiz-adv-x="1247" d="M14 0l9 176l26 2q23 2 45 19q39 29 39 98v846l-2 26q-10 72 -40 104q-26 28 -65 28q-6 0 -12 -1l9 177l186 -2q127 0 201 2q295 8 309 8q172 0 247.5 -17.5t148.5 -78t102.5 -150.5t29.5 -246q0 -211 -148.5 -308t-471.5 -97l-125 -2v-244l4 -80q0 -23 22 -49 q14 -18 36 -26.5t48 -8.5l-8 -176h-590zM502 881h80q143 0 202.5 38.5t59.5 133.5q0 104 -72 141q-25 14 -94 14h-60h-14q-55 -10 -77.5 -32.5t-22.5 -69.5z" />
<glyph unicode="Q" horiz-adv-x="1480" d="M59 754q0 358 178.5 556.5t489.5 198.5q74 0 158 -12q233 -35 379 -199q154 -174 153 -434q0 -326 -45 -465q-53 -165 -231 -319l20 -31q35 -53 93.5 -89t121.5 -52l-407 -92q-55 80 -125 141l-10 8l-11 6q-49 -8 -114 -8q-14 0 -32 2t-28 2q-279 29 -434.5 234 t-155.5 553zM461 748q0 -207 52.5 -312.5t156.5 -134.5q43 -12 82 -12q127 0 196.5 134t69.5 406q0 170 -79 264.5t-202 94.5q-133 0 -204.5 -107.5t-71.5 -332.5z" />
<glyph unicode="R" horiz-adv-x="1302" d="M10 0l8 176h15q49 0 68.5 34t19.5 122l8 817l-2 29q0 63 -18.5 84.5t-77.5 33.5l-21 2l8 175q74 0 223.5 -2.5t250.5 -2.5l219 11h170q147 0 249.5 -119t102.5 -283q0 -82 -31 -166q-63 -178 -237 -229l231 -424q23 -41 51 -57q18 -10 41 -17l25 -8l-6 -176h-387 q-8 25 -16.5 50.5t-18.5 41.5l-6 10l-261 478l-122 -7l2 -245q0 -84 16 -111t78 -39l16 -2l-8 -176h-590zM502 1083l2 -206l76 -5q127 0 194.5 38t77.5 106q4 29 4 43q0 135 -154 147q-14 2 -29.5 2h-21.5q-150 0 -149 -75v-50z" />
<glyph unicode="S" horiz-adv-x="1191" d="M59 1079q14 168 127 281q70 70 156 103.5t209 33.5q55 0 141 -10l27 -4l168 -27l196 -22v-66v-68q0 -141 13 -286l-256 4l-11 59l-2 6l-14 52q-18 63 -56 91.5t-112 28.5q-31 0 -72 -6l-38 -8q-43 -14 -69 -47t-26 -74q0 -29 18.5 -61.5t53.5 -54t127 -54.5l70 -26 q106 -41 161 -70q137 -70 192.5 -145.5t67.5 -212.5q2 -14 3 -27v-27q0 -20 -1.5 -36.5t-9.5 -67.5q-43 -203 -193.5 -280.5t-467.5 -77.5l-82 6l-184 24l-17 2l-59 6l-6 121l-7 119l-4 117l-4 114l242 -4v-34q18 -203 235 -203q53 0 94.5 17.5t63 47t21.5 64.5 q0 27 -21.5 61.5t-62.5 59t-123 47.5q-217 61 -320.5 138t-146.5 202q-14 39 -17.5 76.5t-3.5 117.5z" />
<glyph unicode="T" horiz-adv-x="1284" d="M0 1073l20 232l7 84l4 86l299 -7q162 0 480 2.5t474 2.5l-4 -93l-6 -90l-4 -108l-4 -107l-238 -4v25l-8 47q-25 78 -96 78h-101v-893v-41l2 -13l4 -20q8 -27 26.5 -45.5t49.5 -28.5l41 -4l-6 -176h-602l8 176l23 4q84 16 84 113l2 926h-74q-41 0 -77 -28t-52 -83l-4 -21 l-4 -14h-244z" />
<glyph unicode="U" horiz-adv-x="1443" d="M14 1298l9 177h595l-6 -177l-14 -4l-25 -6q-41 -10 -56 -37.5t-15 -93.5v-622l4 -64q14 -119 67.5 -172t149.5 -53q94 0 147.5 53t67.5 172l4 64v622q0 76 -18.5 100.5t-79.5 36.5l-19 4l9 177h596l-7 -177l-18 -2q-61 -10 -76.5 -28.5t-15.5 -98.5l-2 -28v-541 q0 -131 -18.5 -213t-59.5 -151q-82 -133 -200 -191.5t-310 -58.5q-193 0 -310.5 57t-199.5 193q-41 66 -60.5 151.5t-19.5 212.5v541v28q-8 84 -21.5 101.5t-76.5 25.5z" />
<glyph unicode="V" horiz-adv-x="1384" d="M-29 1298l9 177h585l8 -177h-24q-78 -8 -78 -59q0 -12 2 -18l4 -17l17 -57l172 -533q16 -53 23 -85.5t13 -79.5v39.5t7 43.5l24 68l166 510l31 80q4 10 6 20t2 21q0 53 -70 65l-22 2l8 177h559l-6 -177q-41 0 -67.5 -28.5t-55.5 -102.5l-385 -979q-12 -31 -19.5 -60.5 t-13.5 -84.5l-4 -43h-313q-23 92 -63 192.5t-214 489.5q-82 184 -145 377l-51 155q-6 20 -29 50l-33 24q-20 10 -43 10z" />
<glyph unicode="W" horiz-adv-x="1939" d="M-14 1298l8 177h590l-9 -177l-10 -2q-68 -10 -83 -29.5t-15 -86.5l14 -78l64 -350q4 -23 9 -60t13 -119l4 -61l19 147l12 76l2 17l111 514q10 43 15 73.5t5 71.5l4 64h422l13 -97l18 -69l139 -521q4 -14 9.5 -58t13.5 -124l6 -71q0 41 9 87t13 72l21 86l67 338l5 27 q8 49 8 82q0 41 -29 58.5t-53 12.5l8 177h545l-6 -177q-66 0 -96.5 -79.5t-133.5 -499.5q-23 -94 -51.5 -194.5t-85.5 -282.5l-16 -58l-6 -14q-8 -35 -14.5 -81t-6.5 -89h-338q0 84 -35 205l-149 530l-33 111q-12 43 -18.5 75.5t-6.5 88.5l-20 -162l-23 -123l-106 -516 l-21 -103l-10 -112l-383 6l-20 111l-6 26l-27 94l-57 199q-43 160 -101.5 379t-79 314.5t-29.5 118t-40 38.5q-12 8 -23 12q-12 4 -26 6z" />
<glyph unicode="X" horiz-adv-x="1345" d="M0 0l23 176l458 576l-366 487l-9 10q-35 41 -75 49l8 177h588l-9 -177h-18q-37 -4 -37 -34q0 -12 6 -31l31 -55l117 -215l121 217l24 39q12 18 12 34q0 29 -27.5 38t-43.5 7l8 177h504l-6 -177l-402 -518l350 -536l29 -43q20 -20 60 -25l-7 -176h-579l6 176l20 2 q43 12 43 55q0 12 -6 29l-6 14l-20 37l-123 215l-150 -204q-39 -53 -39 -86q0 -35 62 -58l14 -4l-8 -176h-553z" />
<glyph unicode="Y" horiz-adv-x="1226" d="M-29 1284l2 191h605l-11 -197l-12 -4q-59 -18 -59 -55q0 -23 18 -70l76 -193l22 -49q14 -25 29 -84l31 84l30 62l89 192l6 23q2 8 2 14v14q0 66 -58 72l-22 -2l6 193h530l-6 -177q-31 0 -48 -14t-40 -59l-338 -697v-196v-25q6 -76 17.5 -92t66.5 -35l15 -4l-7 -176h-567 l6 176l19 4q49 10 64.5 27.5t15.5 66.5l2 256l-383 674l-19 29q-33 51 -82 51z" />
<glyph unicode="Z" horiz-adv-x="1214" d="M29 0l10 209l606 944q6 14 37 41l16 14h-94h-82q-102 0 -152.5 -36.5t-50.5 -92.5h-241q12 88 19 152.5t7 116.5l7 63l4 64h1028l22 -201l-26 -39l-29 -37l-31 -45l-4 -8l-475 -735q-6 -14 -35 -45q-35 -41 -78 -72h226h26q76 0 123 32.5t70 92.5l8 33h229 q-41 -207 -73 -451h-1067z" />
<glyph unicode="[" horiz-adv-x="737" d="M133 -340v1925h590v-155h-238v-1618h234v-152h-586z" />
<glyph unicode="\" horiz-adv-x="655" d="M70 1475h258l258 -1475h-258z" />
<glyph unicode="]" horiz-adv-x="737" d="M14 -178h238v1618h-234v151h586v-1925h-590v156z" />
<glyph unicode="^" horiz-adv-x="1099" d="M70 317l479 863l481 -863h-293l-188 369l-187 -369h-292z" />
<glyph unicode="_" horiz-adv-x="876" d="M70 0h737v-82h-737v82z" />
<glyph unicode="`" horiz-adv-x="610" d="M-121 1595h463l41 -77q84 -156 172 -301h-248l-96 86l-98 88l-117 102z" />
<glyph unicode="a" horiz-adv-x="1202" d="M55 356q0 51 13 101q39 145 139 206.5t315 61.5l197 -8l-8 57q-6 49 -52.5 63.5t-171.5 14.5q-63 0 -227 -43l-117 -31l15 289q90 31 178 47t190 16q287 0 410 -84.5t123 -277.5v-514l6 -27q12 -31 78 -47h16q10 0 10 -4l-6 -176h-383q-26 0 -26 47q0 15 2 40q2 24 2 32 l6 49q-31 -63 -78 -100q-55 -49 -104.5 -71t-110.5 -22q-57 0 -127 15q-240 45 -283 291q-6 37 -6 75zM428 360q0 -78 84 -94q14 -4 31.5 -4h36.5q86 8 121.5 44t35.5 108v75h-112q-76 0 -107 -16q-90 -43 -90 -113z" />
<glyph unicode="b" horiz-adv-x="1275" d="M14 1409l9 139l219 39h235l-6 -47l-4 -55l-6 -123v-449l90 76l74 53q102 70 215 70q117 0 211 -75.5t135 -211.5q12 -37 21.5 -87t9.5 -95q0 -303 -140.5 -483t-367.5 -180q-209 0 -338 122q-39 -59 -92 -102h-168q14 90 18 163t4 228v895v27q0 49 -12 65.5t-68 24.5z M469 592l2 -105q0 -47 33 -112l22 -43q53 -80 138 -80q90 0 161 98q23 37 34 73t11 107v58q0 70 -8 96q-35 102 -121 102q-29 0 -56.5 -9t-68.5 -32q-74 -43 -127 -120q-8 -12 -12 -17q-8 -10 -8 -16z" />
<glyph unicode="c" horiz-adv-x="1064" d="M59 549q0 279 138.5 429t390.5 150l86 2q92 0 250 -20l65 -10q0 -68 6 -201t6 -199l-243 5l2 12l2 28q0 59 -32 95.5t-87 36.5q-37 0 -74 -15q-72 -25 -106 -84q-41 -70 -41 -198v-72q0 -123 53 -186.5t152 -63.5q66 0 153 35q47 20 97 55l143 -209q-55 -51 -125 -90 q-61 -33 -123.5 -51t-128.5 -18q-281 0 -432.5 141t-151.5 428z" />
<glyph unicode="d" horiz-adv-x="1290" d="M59 530v54q4 23 4 30q23 211 127.5 340t266.5 162q63 14 121 14q115 0 227 -77l26 -21v195q0 90 -24.5 124.5t-97.5 53.5l-31 4l8 139l221 39h264q-8 -82 -8 -180v-31v-1114q0 -33 18.5 -49t71.5 -31l23 -6l-8 -176h-404q-31 68 -30 147l4 60l-47 -62q-88 -98 -164 -135 t-176 -37q-152 0 -252.5 111t-130.5 326q-4 25 -6.5 58.5t-2.5 61.5zM422 551q0 -47 4 -87t8 -52q27 -102 123 -103q41 0 80 21q25 12 95.5 87t88.5 109v90q0 23 -7.5 45.5t-25.5 61.5q-12 27 -36 51q-59 59 -134 60q-113 0 -172 -123q-14 -29 -19 -67t-5 -93z" />
<glyph unicode="e" horiz-adv-x="1124" d="M55 518q0 59 6.5 114.5t22.5 121.5q37 154 136 248t253 118q74 12 139 13q223 0 348 -137.5t125 -393.5q0 -59 -6 -88l-8 -35h-672l4 -33q39 -182 201 -182q84 0 182 62q16 10 33 22q29 20 45 35l183 -184l-52 -49q-78 -68 -155.5 -108t-147 -50t-91 -11t-36.5 -1 q-231 0 -370.5 143t-139.5 395zM393 690h371v23q-12 164 -174 164q-27 0 -58 -7q-111 -16 -137 -153z" />
<glyph unicode="f" horiz-adv-x="653" d="M0 883l8 219h135v176q0 53 19 108q29 74 84 127q100 94 301 95q68 0 135 -31l-6 -279l-23 9l-57 16q-14 2 -27 2h-14q-104 0 -104 -117v-106h221l-8 -219h-191v-551l2 -49q0 -51 23.5 -74t87.5 -31l18 -2l-6 -176h-575l6 176q37 4 58.5 19.5t33.5 40t20 77.5l2 33v537 h-143z" />
<glyph unicode="g" horiz-adv-x="1181" d="M47 -229q0 72 41 143q8 16 19 36t36 40l217 -131l-2 -15q-2 -11 -2 -21q0 -97 138 -130q20 -2 37.5 -4t48.5 -2q47 0 87 7t70 25q63 39 64 80q0 27 -31 62q-12 14 -30.5 21t-51.5 7l-172 7h-31q-100 0 -149 33.5t-70 111.5q-10 29 -10 33v24q0 59 66 164l22 33l-55 20 q-227 106 -228 353q0 57 17 129q39 162 156.5 246.5t312.5 84.5q49 0 104 -6q100 -29 201 -55q16 0 25 2l258 53v-227l-84 -39q57 -86 57 -194q0 -20 -4 -47t-10 -56q-37 -133 -148.5 -211t-308.5 -98l-64 -2l-8 -17q-8 -18 0 -32.5t29 -14.5l65 -2h115q84 0 139.5 -22.5 t108.5 -79.5q82 -86 82 -211q0 -66 -21 -135q-35 -121 -176 -193.5t-385 -72.5q-41 0 -87 4t-79 8q-147 20 -228 101t-81 190zM408 684q0 -51 15 -83.5t56 -65.5q45 -35 115 -35q90 0 145 63q27 33 37 80q0 10 2 24.5t2 28.5q0 78 -71 138q-27 20 -61 28t-62 8 q-102 0 -156 -90q-10 -16 -16 -39.5t-6 -56.5z" />
<glyph unicode="h" horiz-adv-x="1286" d="M14 0l9 176l16 4q49 14 70.5 49t21.5 107v958v27l-2 12q0 63 -90 76h-25l9 139l229 39h211l-2 -63v-74l-2 -47v-25v-479l24 27q102 106 171 148t149 52q16 0 35.5 2t27.5 2q291 0 291 -337v-471v-27q4 -49 18.5 -70.5t55.5 -38.5l41 -10l-6 -176h-551l8 176q39 0 71.5 31 t32.5 106v367v29q-6 73 -71 73h-2q-14 0 -36 -6t-40.5 -16t-58 -41t-70.5 -64q-12 -14 -62 -73l-28 -37l2 -215q0 -86 14 -110.5t76 -39.5l16 -4l-8 -176h-545z" />
<glyph unicode="i" horiz-adv-x="612" d="M29 0l8 176l22 6q55 20 73 60.5t18 152.5v398l-3 32q0 51 -14 69.5t-59 25.5l-33 6h-12l8 139l219 37h231l-4 -39l-2 -41l-2 -39v-45v-567l2 -31q0 -80 15.5 -107.5t72.5 -48.5q14 -4 29 -8l-8 -176h-561zM68 1307q0 27 9 57.5t27 62.5q31 51 82.5 78t135.5 27h35.5 t41.5 -4q121 -20 121 -123q0 -57 -40 -133t-167 -94q-20 -4 -39.5 -4h-29.5q-63 0 -103.5 19t-60.5 56q-12 23 -12 58z" />
<glyph unicode="j" horiz-adv-x="555" d="M14 1065l219 37h242q-12 -47 -12 -78v-1008q0 -170 -49 -280.5t-178 -224.5l-48 -39l-104 90l16 37q29 68 29 110v1108q0 109 -90 109h-16zM49 1307q0 27 9.5 57.5t27.5 62.5q31 51 82 78t135 27q51 0 78 -4q121 -20 121 -123q0 -57 -41 -133t-168 -94q-18 -2 -39 -3 t-31 -1h-3q-121 0 -159 75q-12 23 -12 58z" />
<glyph unicode="k" horiz-adv-x="1230" d="M14 0l9 176l16 2q55 10 74.5 46t19.5 128l6 912l-2 28q-8 72 -25.5 93.5t-66.5 21.5l-29 2l7 139l210 39h238l-10 -61l2 -82v-817l178 180l41 43q16 20 16 33q0 23 -29.5 35t-50.5 8l23 176h561v-176q-39 0 -76 -29l-34 -39l-273 -266l309 -352q43 -51 103 -64l-8 -176 h-357q-8 33 -32 76l-5 4l-43 49l-325 367l2 -172l2 -56v-8q4 -31 23.5 -48t68.5 -28l12 -2l-8 -182h-547z" />
<glyph unicode="l" horiz-adv-x="591" d="M14 0l9 176l18 4q51 14 71.5 41t20.5 78v989l-2 27q-8 47 -26.5 64.5t-69.5 27.5l-21 2l9 139l223 39h225l-12 -74l2 -122v-1055q0 -78 14 -106.5t66 -45.5l37 -8l-9 -176h-555z" />
<glyph unicode="m" horiz-adv-x="1894" d="M29 0l8 176l18 4q51 10 66.5 27.5t23.5 77.5l2 14l-4 487v54l-2 12q-4 35 -25.5 52.5t-72.5 21.5h-14l8 139l242 37h163l4 -21l7 -28l4 -47l2 -43l43 30q98 68 139 90.5t100 36.5q68 20 113 21q20 -2 31 -2q70 0 109.5 -19.5t78.5 -62.5q18 -18 23 -31l24 -49 q33 41 80 76q92 68 164 77t109 9q70 0 118.5 -17.5t89.5 -54.5q51 -47 67.5 -101.5t16.5 -183.5v-458q0 -76 32 -114q29 -34 73 -34h10l-10 -176h-547l8 176l19 2q55 8 73.5 34t18.5 99v389v50v8l-6 20q-18 43 -60 43q-43 0 -123 -47l-43 -26q-55 -39 -88 -80v-365 q0 -61 20.5 -88t74.5 -37l22 -2l-6 -176h-561l8 176l18 2q96 0 97 135v322v63q0 49 -30 79q-25 25 -60 25q-7 0 -15 -1q-43 -6 -78 -33l-39 -31l-22 -16l-47 -37l-15 -12l-16 -15v-319v-59v-13q6 -55 80 -80l25 -8l12 -2l-8 -176h-553z" />
<glyph unicode="n" horiz-adv-x="1298" d="M29 0l8 176l10 2l25 8q47 12 61 40t14 110v475q0 66 -15 85t-77 28l-26 2l8 139l225 39h174q10 -33 15 -70v-10v-43v-100l20 22l64 60q59 55 98 82.5t80 46.5q94 41 180 41q150 0 233 -136q25 -39 34 -83t9 -121v-471v-50v-8q6 -68 99 -84l16 -4l-10 -176h-557l4 176 l16 2q57 10 75.5 29.5t25.5 77.5l2 28v367v27q-6 73 -66 73h-2q-27 0 -55 -14q-51 -25 -94 -61q-51 -45 -119 -130l-27 -36v-230q0 -78 17.5 -97t95.5 -34l14 -2l-8 -176h-567z" />
<glyph unicode="o" d="M55 565q0 274 146.5 423t416.5 149q250 0 397.5 -127t170.5 -357q4 -29 4 -54.5v-49.5q0 -279 -149.5 -428.5t-422.5 -149.5q-274 0 -418.5 150.5t-144.5 443.5zM430 532q0 -152 49 -219t148 -67q96 0 146 67.5t50 218.5l-4 113q0 102 -52 158.5t-136 56.5 q-88 0 -142.5 -55t-54.5 -160z" />
<glyph unicode="p" horiz-adv-x="1292" d="M14 926l9 139l221 37l196 -2l4 -47v-45v-37q-4 -25 -4 -35l54 53q90 82 148 109.5t144 27.5q178 0 286 -94t149 -303q12 -72 12 -145v-35q-4 -25 -4 -37q-16 -152 -66.5 -257t-130.5 -171q-137 -109 -301 -109q-27 0 -41 2q-154 18 -229 119v-299q0 -61 22.5 -84.5 t89.5 -31.5h17l-8 -173h-344l-121 -8l8 72q0 59 2 107.5t4 91.5v1013q0 78 -16.5 102.5t-75.5 37.5q-17 4 -25 2zM465 543q0 -145 50 -220t140 -75q33 0 74 12l51 25q59 39 81 97t22 187q0 63 -11 111q-35 125 -147 125q-70 0 -147 -57q-39 -27 -82 -78l-31 -43v-84z" />
<glyph unicode="q" horiz-adv-x="1267" d="M59 492q0 23 1 44t10 85q37 221 179 353t331 132q117 0 231 -55q47 -23 51 -25q16 -10 51 -33l58 62l51 47h145q-6 -31 -10 -57.5t-4 -59.5v-67v-1098l2 -27q0 -66 16.5 -90.5t61.5 -24.5h27h8l-6 -176h-227.5t-225.5 -2q8 90 12 188.5t4 239.5v232q-100 -135 -272 -166 q-25 -6 -52.5 -8t-58.5 -2q-160 0 -257 103t-119 302q-6 53 -7 103zM393 504q0 -221 174 -221q57 0 123 26q109 45 131 144v133l-2 30q0 104 -48 163t-130 59q-35 0 -76 -13.5t-77.5 -53.5t-67.5 -114q-18 -39 -25 -106z" />
<glyph unicode="r" horiz-adv-x="808" d="M29 0l8 176l8 2l29 8q45 10 58 32t13 91v31v457q0 131 -94 131l-22 -2l8 139l215 37h180l4 -49l4 -54l4 -65v-8l-8 -144l13 31l10 27l35 78q59 129 108 163.5t156 34.5l63 -4l17 -2l-13 -305l-12 2l-12 2h-13l-24 2q-43 0 -67.5 -18.5t-96.5 -106.5q-18 -20 -34.5 -42.5 t-41.5 -59.5l-45 -68l4 -203l-2 -53q0 -39 21.5 -56.5t81.5 -25.5l12 -2l-6 -176h-561z" />
<glyph unicode="s" horiz-adv-x="997" d="M59 762q0 27 2 41q10 127 105 223q61 63 142 82.5t249 19.5l57 -4l136 -14l43 -6l90 -8l2 -76l4 -74l18 -215h-235l-8 37q-16 61 -40 85t-75 24q-18 2 -27 2q-37 0 -57 -17q-35 -29 -35 -59q0 -33 33 -55l37 -19l47 -20l16 -7l27 -8l78 -24l24 -8q248 -102 248 -312v-26 q-4 -18 -4 -27q-20 -156 -122.5 -236.5t-291.5 -80.5h-35q-14 0 -31.5 2t-27.5 2l-59 6q-127 16 -169 20t-118 4l-2 90l-4 93l-4 108l-4 109l237 -11l2 -20q14 -172 146 -172q35 0 70.5 6t57 27.5t21.5 58.5q0 31 -17.5 46.5t-72.5 35.5l-147 51q-51 16 -80 27.5t-47 21.5 q-178 100 -179 277z" />
<glyph unicode="t" horiz-adv-x="731" d="M14 883l19 219h96l33 239l295 82v-321h252l-17 -219h-235v-502q0 -80 18 -117l4 -6l6 -8q20 -23 60 -23q25 0 55 9l43 12l12 4l90 -201l-18 -8l-29 -14q-135 -61 -260 -62q-135 0 -220 71t-85 181q-2 25 -3 43.5t-1 30.5v24v566h-115z" />
<glyph unicode="u" horiz-adv-x="1284" d="M14 926l9 139l217 37h243q-22 -171 -22 -379v-18v-222v-34q0 -53 20.5 -76t73.5 -23h25q18 4 43.5 6t66.5 30t101 93l43 49v277v26q-4 53 -25 74t-66 21h-26h-10l-7 139l213 37h258l-10 -146l2 -122v-494q0 -86 16.5 -118t69.5 -42l17 -2l10 -2l-8 -176h-404 q-8 33 -12 77t-4 87t6 90l-78 -86l-16 -16l-47 -48q-128 -122 -262 -122h-2q-31 0 -49.5 2t-55.5 12q-125 33 -169 110.5t-44 274.5v381v18l-2 66q0 47 -19.5 64.5t-74.5 17.5z" />
<glyph unicode="v" horiz-adv-x="1142" d="M-14 926l8 176h536l-6 -176l-12 -2q-61 -20 -61 -68q0 -8 3 -23.5t5 -23.5l39 -150l4 -8l37 -125l14 -45l2 -8l8 -31l12 -96q0 43 11 90l14 45l59 189l35 108l11 29l10 33l2 10q6 25 -8.5 44t-49.5 30l-18 2l8 176h508l-6 -176l-23 -6q-57 -23 -92 -107q-6 -16 -94 -252 l-33 -92q-63 -178 -118 -307l-41 -92l-2 -7q-4 -12 -7 -18q-4 -20 -8 -45h-307l-12 33l-8 22l-46 99q-106 221 -138 294.5t-101 251.5l-51 134l-13 24q-34 68 -71 68z" />
<glyph unicode="w" horiz-adv-x="1806" d="M-14 926l8 176h536l-6 -176l-14 -4q-63 -20 -64 -80q2 -18 3 -29l14 -72l43 -215l16 -75q8 -31 8 -99q0 51 11 97l4 12l22 80l15 47l94 321l12 49l14 56l9 43l10 45h366l23 -105l20 -65q35 -119 59.5 -200t39.5 -122l22 -65l9 -27l20 -74l16 -88v39.5t9 55.5l16 86 l35 168l20 106q4 18 4 45q0 37 -20.5 53.5t-46.5 16.5l8 176h500l-6 -176q-6 1 -11 1q-34 0 -57 -44l-21 -39q-31 -74 -65 -211q-47 -182 -113 -492l-16 -67q-4 -20 -4 -41q0 -20 2 -33h-414l-14 82l-4 12l-21 62l-143 442l-16 78l-11 108l-6 -45q-8 -55 -14 -81.5 t-15 -51.5l-147 -434l-25 -57q-20 -45 -20 -115h-318q-4 20 -8 41q-2 6 -14 37l-18 45q-25 57 -54 139q-37 102 -73 225l-86 279l-11 35q-16 59 -36.5 85.5t-59.5 37.5z" />
<glyph unicode="x" d="M0 0l8 176q39 0 61.5 14.5t57.5 59.5l246 303l-223 305q-68 88 -142 88l6 156h611l-9 -176l-20 2q-33 -2 -51.5 -26.5t-7.5 -47.5l22 -43l72 -131l108 145l21 29q10 12 4 35q-6 27 -43 37h-21l9 176h522l-6 -176l-29 -8q-59 -27 -90 -68l-225 -270l264 -326 q25 -31 51.5 -49.5t56.5 -28.5l-8 -176h-559l6 176h25q49 8 49 39q0 10 -10 35l-29 41l-106 143l-121 -164l-15 -20l-4 -4q-6 -12 -6 -23q0 -29 43 -41l35 -6l-8 -176h-545z" />
<glyph unicode="y" horiz-adv-x="1150" d="M-14 926l8 176h530l-8 -176h-12q-39 -4 -49.5 -17.5t-10.5 -52.5l5 -37q2 -20 11 -52t34 -103l53 -156l12 -37l23 -59q6 -20 12 -49t6 -54q0 43 7 71t32 103l37 111q72 217 72 274q0 45 -54 58h-16l8 176h479l-8 -191q-16 0 -37 -10q-47 -18 -61 -76l-12 -41 q-47 -164 -127 -370q-98 -258 -254 -607l-144 -301l-368 -2l84 144l84 145l106 189q-84 150 -144.5 294t-152.5 412l-31 94l-12 37q-16 47 -25.5 62.5t-29.5 28t-47 16.5z" />
<glyph unicode="z" horiz-adv-x="1062" d="M37 219l24 29l23 28l22 27l383 428l43 51q16 18 56 45l-139 4q-66 0 -93.5 -19t-36.5 -77l-6 -33v-12h-254q14 102 30.5 216t16.5 202q131 0 399.5 -2t403.5 -2l117 -195l-61 -73l-39 -54l-373 -450l-29 -35q-12 -14 -49 -27l166 -2q98 0 127 84l8 35l6 19l9 30h233 q-27 -117 -47.5 -229.5t-32.5 -218.5l-63 12h-35h-723z" />
<glyph unicode="{" horiz-adv-x="724" d="M70 737q59 0 97 42t38 106v645q0 88 51 139t141 51h258v-153h-26q-66 0 -90.5 -22.5t-24.5 -82.5v-540q0 -55 -32.5 -102.5t-86.5 -69.5l-55 -13l55 -12q119 -51 119 -172v-541q0 -57 25.5 -80.5t89.5 -23.5h26v-154h-258q-92 0 -142 50.5t-50 140.5v645q0 63 -38 105 t-97 42z" />
<glyph unicode="}" horiz-adv-x="724" d="M70 -92h26q66 0 90.5 22.5t24.5 81.5v541q0 55 32.5 102t86.5 70l55 12l-55 13q-119 51 -119 172v540q0 57 -25.5 81t-89.5 24h-26v153h258q92 0 142 -50t50 -140v-645q0 -63 38 -105.5t97 -42.5q-59 0 -97 -42t-38 -105v-645q0 -88 -51 -139.5t-141 -51.5h-258v154z" />
<glyph unicode="~" horiz-adv-x="1036" d="M70 555l2 51q14 160 80.5 241t175.5 81q31 0 58.5 -6.5t70.5 -20.5l170 -65l47 -17q18 -6 33 -6q39 0 59 59q8 25 8 39l2 19h191l-2 -51q-29 -319 -254 -320q-55 0 -131 27l-170 63l-48 17q-16 8 -34 8q-35 0 -58 -62q-8 -20 -8 -37l-2 -20h-190z" />
<glyph unicode="&#xa1;" horiz-adv-x="571" d="M74 1294q0 84 59.5 143.5t159.5 59.5q86 0 143.5 -49t57.5 -127q0 -12 -3.5 -29.5t-5.5 -25.5q-16 -61 -69.5 -99.5t-132.5 -38.5q-12 0 -41 5q-78 12 -123 55t-45 106zM88 -25q31 244 42 492t11 541l273 34l12 -213q0 -143 16.5 -280t83.5 -520z" />
<glyph unicode="&#xa2;" horiz-adv-x="1064" d="M59 549q0 244 109 392t289 171v113h303v-107q82 0 126 -3t103 -15q0 -68 6 -201t6 -199l-243 -4l2 15l2 34q0 63 -30 97.5t-87 34.5q-35 0 -76 -15q-72 -25 -106 -84q-41 -70 -41 -198v-72q0 -123 53 -186.5t152 -63.5q66 0 153 35q47 20 97 55l143 -209 q-55 -51 -125 -90t-147 -61l-3 -107h-303v109l-49 14q-160 55 -247 192.5t-87 352.5z" />
<glyph unicode="&#xa3;" horiz-adv-x="1208" d="M29 834h182l-8 26l-23 80q-29 98 -28 154q0 18 2 39.5t8 46.5q33 158 152.5 239.5t344.5 81.5q162 0 284 -73.5t185 -206.5q27 -49 35 -99l-235 -141q-18 55 -56 96q-59 72 -117.5 107t-105.5 35q-70 0 -108 -66q-10 -16 -16.5 -35.5t-6.5 -40.5q0 -27 17 -80l2 -6 l22 -61l31 -96h344l-8 -271h-320v-16l2 -31q0 -55 -15 -95t-61 -97l-40 -43l98 14l41 4l49 4q16 2 39 2h26l43 -8l33 -4l58 -10l32 -4l47 -11q16 -4 58 -4q49 0 129 19l-35 -275l-51 -8q-121 -20 -213 -20q-86 0 -297 28q-12 2 -30.5 2h-31.5h-100q-51 0 -85 -6t-103 -22 l-109 227l37 24q139 104 139 261q-2 23 -2 32l-6 37h-225z" />
<glyph unicode="&#xa5;" horiz-adv-x="1284" d="M0 1284l2 191h604l-10 -197l-12 -4q-59 -18 -60 -55q0 -23 19 -70l75 -193l23 -49q14 -25 29 -84l30 84l31 62l88 192l6 23q2 8 2 14v14q0 66 -57 72l-22 -2l6 193h530l-6 -177q-31 0 -49.5 -14t-38.5 -59l-244 -518h309v-129h-378l-25 -50l2 -36h403v-134h-405l2 -43 l2 -57q0 -31 15.5 -46t64.5 -32l14 -4l-6 -176h-567l6 176l18 4q47 8 63.5 26.5t16.5 67.5l2 78h-446v140h448l-2 38l-22 50h-426v133h350l-285 491l-18 29q-33 51 -82 51z" />
<glyph unicode="&#xa7;" horiz-adv-x="1236" d="M59 -6l201 -4q-2 -18 2 -53q14 -104 84 -149.5t217 -45.5q68 0 99.5 8t62.5 29q45 29 69.5 67.5t24.5 79.5q0 72 -63 133q-18 18 -49 34t-109 40l-90 29l-92 28q-154 49 -224.5 120t-99.5 208q-4 18 -6 34.5t-2 37.5q0 109 88 244l39 53q-45 53 -68.5 117.5t-23.5 140.5 q0 59 16 137q33 145 148 223q123 84 327 84q109 0 244 -24l96 -17l78 -16q29 -4 51 -6q72 -10 99 -13q-8 -43 -12.5 -111.5t-4.5 -119.5v-141l-209 4l-2 14l-4 31q-18 106 -85.5 149t-223.5 43q-23 0 -37 -2q-10 -2 -33 -8q-131 -45 -131 -143q0 -31 14.5 -68t38 -58.5 t80.5 -47.5l80 -31l21 -8l149 -68l135 -57q8 -4 34 -20.5t48 -34.5q59 -47 88 -106.5t29 -164.5q0 -100 -23.5 -182t-76.5 -145q94 -104 94 -250q0 -57 -21 -133q-47 -168 -165.5 -253t-327.5 -85q-96 0 -160.5 5t-191.5 27l-72 15q-10 2 -45 2h-86l-6 106l-4 109l-5 106z M416 641q0 -88 133 -149l43 -17l61 -18l74 -19l14 -4l72 -22l6 43q0 86 -21.5 119.5t-113.5 80.5l-55 29l-62 29l-12 4q-47 20 -115 37l-4 -13l-10 -36q-10 -37 -10 -64z" />
<glyph unicode="&#xa8;" horiz-adv-x="835" d="M0 1335q0 184 203 185q170 0 170 -119q0 -41 -21 -94q-27 -72 -127 -86q-49 -6 -84 -7q-141 0 -141 121zM467 1335q0 88 52 136.5t153 48.5q168 0 168 -119q0 -39 -19 -92q-25 -74 -129 -88q-49 -6 -84 -7q-141 0 -141 121z" />
<glyph unicode="&#xaa;" horiz-adv-x="937" d="M70 506v176h798v-176h-798zM74 995q0 96 75.5 162t196.5 66q55 0 113 -15l33 -8l22 -8l21 -8v59q0 106 -101 121h-49q-74 -12 -98 -68l-6 -14l-201 21q25 94 115 147t247 53l68 -4q143 -14 204.5 -74.5t61.5 -179.5v-297l92 4v-170l-82 2q-61 0 -124.5 -1t-126.5 -1v64 l-23 -15q-27 -16 -47.5 -25t-47 -18.5t-55 -13.5t-53.5 -4q-104 0 -169.5 63.5t-65.5 161.5zM311 997q0 -43 27 -67.5t70 -24.5q27 0 55 13l57 34l15 13v96l-17 8l-57 25q-25 6 -45 6q-47 0 -76 -29t-29 -74z" />
<glyph unicode="&#xab;" horiz-adv-x="1196" d="M45 547q119 219 211 467h315q-82 -217 -137 -467l43 -92q82 -170 178 -318h-356l-49 90q-51 88 -98.5 164t-106.5 156zM541 547q59 113 112 229q47 106 99 238h315l-51 -146q-47 -152 -86 -321l43 -92q82 -170 178 -318h-356q-115 224 -254 410z" />
<glyph unicode="&#xad;" horiz-adv-x="841" d="M45 512q78 156 78 315h674q-59 -145 -82 -315l-160 8q-86 0 -290 -4t-220 -4z" />
<glyph unicode="&#xaf;" horiz-adv-x="671" d="M0 1227v313h672v-313h-672z" />
<glyph unicode="&#xb4;" horiz-adv-x="638" d="M106 1217l60 98l57 98l53 90l52 92h458l-227 -204l-94 -88l-94 -86h-265z" />
<glyph unicode="&#xb6;" horiz-adv-x="1263" d="M70 1038q0 180 126 308.5t306 128.5h686v-148h-686q-119 0 -203 -86t-84 -207q0 -117 84 -200.5t201 -83.5h129v467h159v-1217h-286v139l127 -4v467h-127q-178 0 -305 127t-127 309zM911 0v1217h160l-2 -1084l125 6v-137z" />
<glyph unicode="&#xb7;" horiz-adv-x="520" d="M51 547q0 80 57.5 133t145.5 53q47 0 100 -18l47 -25q68 -49 68 -131q0 -76 -63 -137q-20 -18 -45 -31.5t-57 -21t-68 -7.5q-86 0 -135.5 49.5t-49.5 135.5z" />
<glyph unicode="&#xb8;" horiz-adv-x="434" d="M0 -426l35 133l16 -8l17 -8l14 -6l47 -9h10l29 5l41 8q31 12 31 43q0 10 -7 20q-16 27 -55 27q-20 0 -45 -8l-20 -7l-13 -6l-34 90q127 92 186 234l84 -27l-66 -159q37 -4 58 -15l26 -14l19 -10l8 -4q14 -6 31 -39l8 -17l6 -14q4 -12 6 -26.5t2 -26.5q0 -78 -74.5 -129.5 t-203.5 -51.5q-27 0 -64 6.5t-47 8.5z" />
<glyph unicode="&#xba;" horiz-adv-x="917" d="M70 682h776l2 -176h-776zM72 1133q0 145 87 244.5t236 119.5q20 2 35.5 3t28.5 1h30q20 -4 31 -4q154 -23 240 -119t86 -245q0 -145 -87 -242.5t-239 -120.5q-14 -2 -32.5 -3t-28.5 -1h-23q-12 0 -41 4q-150 23 -236.5 120.5t-86.5 242.5zM319 1133l5 -37q8 -74 34 -109 q18 -27 44 -39t57 -12q66 0 101.5 53t35.5 148q0 25 -4 61.5t-23.5 70.5t-50.5 49t-59 15q-29 0 -58.5 -15t-50 -49t-26.5 -95z" />
<glyph unicode="&#xbb;" horiz-adv-x="1196" d="M45 1014h358l46 -90q16 -31 53 -90q70 -117 153 -232q-119 -227 -211 -465h-313l49 146q49 147 88 319l-43 92q-74 154 -180 320zM541 1014h358l47 -90q96 -170 205 -322q-57 -109 -112.5 -227.5t-98.5 -237.5h-313q41 111 75.5 228.5t61.5 236.5l-43 92 q-74 154 -180 320z" />
<glyph unicode="&#xbf;" horiz-adv-x="999" d="M57 348q0 145 125 270l92 95l62 61l12 14q66 80 66 138q0 41 -39 80l375 86l20 -43q20 -55 21 -91q0 -72 -101 -210l-33 -39l-79 -95l-56 -51q-55 -49 -72.5 -75.5t-17.5 -67.5q-2 -18 -2 -27v-12q4 -8 4 -10q16 -70 76 -70q14 0 31 6q35 16 110 92q31 31 68 88l31 56 l235 -191q-51 -104 -144 -195t-196.5 -136.5t-204.5 -45.5q-164 0 -266 109q-117 127 -117 264zM352 1288q0 84 59.5 143.5t159.5 59.5q90 0 144.5 -48t54.5 -130q0 -25 -6 -53q-16 -61 -70.5 -99.5t-132.5 -38.5q-12 0 -41 4q-78 12 -123 55.5t-45 106.5z" />
<glyph unicode="&#xc0;" horiz-adv-x="1394" d="M-29 0l9 176q20 0 42.5 10.5t38 30t31.5 66.5l365 983l47 123q4 8 11 39.5t9 46.5h361l18 -82l37 -97l373 -1048q8 -25 29.5 -42.5t56.5 -25.5l24 -4l-8 -176h-571l8 176l20 2q74 12 64 74l-2 10l-12 39l-31 90h-432l-33 -96q-12 -35 -12 -57q0 -47 80 -60l14 -2l-8 -176 h-529zM270 1964h463l41 -78q84 -156 172 -301h-248l-96 86l-98 88l-117 103zM535 651h290l-112 312l-13 38q-4 10 -10 35t-12 49q-6 -49 -19 -86l-18 -51z" />
<glyph unicode="&#xc1;" horiz-adv-x="1394" d="M-29 0l9 176q20 0 42.5 10.5t38 30t31.5 66.5l365 983l47 123q4 8 11 39.5t9 46.5h361l18 -82l37 -97l373 -1048q8 -25 29.5 -42.5t56.5 -25.5l24 -4l-8 -176h-571l8 176l20 2q74 12 64 74l-2 10l-12 39l-31 90h-432l-33 -96q-12 -35 -12 -57q0 -47 80 -60l14 -2l-8 -176 h-529zM483 1585l60 98l57 99l53 90l52 92h458l-227 -205l-94 -88l-94 -86h-265zM535 651h290l-112 312l-13 38q-4 10 -10 35t-12 49q-6 -49 -19 -86l-18 -51z" />
<glyph unicode="&#xc2;" horiz-adv-x="1394" d="M-29 0l9 176q20 0 42.5 10.5t38 30t31.5 66.5l365 983l47 123q4 8 11 39.5t9 46.5h361l18 -82l37 -97l373 -1048q8 -25 29.5 -42.5t56.5 -25.5l24 -4l-8 -176h-571l8 176l20 2q74 12 64 74l-2 10l-12 39l-31 90h-432l-33 -96q-12 -35 -12 -57q0 -47 80 -60l14 -2l-8 -176 h-529zM315 1581l64 115l65 114l48 86l47 89h342l32 -78q80 -182 164 -326h-260q-43 80 -108 145l-50 -49q-41 -47 -63 -96h-281zM535 651h290l-112 312l-13 38q-4 10 -10 35t-12 49q-6 -49 -19 -86l-18 -51z" />
<glyph unicode="&#xc3;" horiz-adv-x="1394" d="M-29 0l9 176q20 0 42.5 10.5t38 30t31.5 66.5l365 983l47 123q4 8 11 39.5t9 46.5h361l18 -82l37 -97l373 -1048q8 -25 29.5 -42.5t56.5 -25.5l24 -4l-8 -176h-571l8 176l20 2q74 12 64 74l-2 10l-12 39l-31 90h-432l-33 -96q-12 -35 -12 -57q0 -47 80 -60l14 -2l-8 -176 h-529zM276 1659l15 49q45 119 98 170t131 51q43 0 105 -16l127 -33q23 -6 36 -6q37 0 60 47l4 10l266 -80l-14 -51q-82 -221 -238 -221q-29 0 -43 2t-47 12l-141 43q-18 6 -33 6q-39 0 -55 -51l-2 -18zM535 651h290l-112 312l-13 38q-4 10 -10 35t-12 49q-6 -49 -19 -86 l-18 -51z" />
<glyph unicode="&#xc4;" horiz-adv-x="1394" d="M-29 0l9 176q20 0 42.5 10.5t38 30t31.5 66.5l365 983l39 135l-25 -4q-35 -6 -59 -6q-133 0 -133 116q0 25 6 54q27 129 186 129q31 0 62.5 -5.5t41.5 -11.5q70 -25 70 -98q0 -39 -22 -70q-8 -14 -25 -24h172q-29 23 -29 55q0 41 56 106q41 45 147 46q166 0 166 -115 q0 -37 -15.5 -81t-43.5 -62q-53 -35 -95 -35q-31 0 -55 18l39 -117l373 -1048q8 -25 29.5 -42.5t56.5 -25.5l24 -4l-8 -176h-571l8 176l20 2q74 12 64 74l-2 10l-12 39l-31 90h-432l-33 -96q-12 -35 -12 -57q0 -47 80 -60l14 -2l-8 -176h-529zM535 651h290l-112 312l-13 38 q-4 10 -10 35t-12 49q-6 -49 -19 -86l-18 -51z" />
<glyph unicode="&#xc5;" horiz-adv-x="1394" d="M-29 0l9 176q20 0 42.5 10.5t38 30t31.5 66.5l365 983l47 123q4 8 11 39.5t9 46.5l68 2q-66 29 -100.5 82t-34.5 118q0 88 65 154q74 74 178 74q106 0 181 -74q63 -66 63 -154q0 -63 -33.5 -118.5t-97.5 -83.5h72l18 -82l37 -97l373 -1048q8 -25 29.5 -42.5t56.5 -25.5 l24 -4l-8 -176h-571l8 176l20 2q74 12 64 74l-2 10l-12 39l-31 90h-432l-33 -96q-12 -35 -12 -57q0 -47 80 -60l14 -2l-8 -176h-529zM535 651h290l-112 312l-13 38q-4 10 -10 35t-12 49q-6 -49 -19 -86l-18 -51zM627 1661q0 -31 21 -52.5t52 -21.5t53.5 20.5t22.5 53.5 q0 31 -22.5 53.5t-53.5 22.5q-29 0 -51 -22.5t-22 -53.5z" />
<glyph unicode="&#xc6;" horiz-adv-x="1832" d="M-29 0l64 156l467 1093q12 29 23.5 74t19.5 113l4 39h1151l10 -107q6 -68 17.5 -154t23.5 -170l-229 -4l-6 27q-23 80 -58 110.5t-96 30.5h-59q-74 0 -93 -63v-55v-177h418l-18 -280h-402v-268l2 -21q6 -68 17.5 -80t70.5 -12l21 -2h88q123 0 123 139l4 39h240 q-20 -113 -29 -162q-14 -94 -14 -166l-2 -100h-988l4 182h13q41 6 57 25.5t25 71.5l2 32v322h-234l-131 -283l-8 -18q-8 -35 -8 -64q0 -41 26 -63q18 -16 50 -17l-17 -188h-549zM684 911l174 2v181l-2 73v27l2 47h-65l-5 -20l-4 -21l-24 -84z" />
<glyph unicode="&#xc7;" horiz-adv-x="1257" d="M59 772q0 385 188.5 558t577.5 173l88 -8l68 -8l70 -8l96 -4l8 -101l6 -102l8 -119l11 -121l-254 6l-4 25q-41 160 -172 160q-43 0 -88 -15q-100 -33 -153.5 -150.5t-53.5 -338.5q0 -55 3 -87t17 -91q63 -256 254 -256q80 0 170 51q78 41 143 96l39 35l176 -252l-53 -45 q-123 -94 -220 -138t-193 -52l-52 -119q37 -4 62 -15l28 -16l19 -10l12 -6q8 -4 12 -9q12 -14 26.5 -50t14.5 -74q0 -82 -64.5 -139.5t-172.5 -57.5q-55 0 -91 2t-91 14l-50 13l37 145l6 -4l13 -6q47 -25 86 -25h8l33 4l45 11q35 12 35 45q0 6 -2 12q-4 8 -7 10 q-16 29 -59 29q-25 0 -49 -8l-25 -9l-12 -4l-37 97q80 53 133 133l10 16l9 14l-68 7q-270 39 -401 219q-139 193 -140 573z" />
<glyph unicode="&#xc8;" horiz-adv-x="1210" d="M14 0l9 176q20 0 30 4q39 10 57.5 40t18.5 95l2 805v33q-6 51 -17.5 80t-36 47t-63.5 18l9 177h1062l15 -164q12 -115 37 -238h-232l-12 49l-6 17l-6 14q-16 37 -39 46t-99 9h-118q-41 0 -59.5 -8t-42 -40t-23.5 -89v-172h514l-13 -281h-501v-223q0 -84 20.5 -108.5 t102.5 -38.5l30 -2h76q96 0 128 25.5t61 127.5l14 54h233q-33 -162 -43 -226q-18 -121 -18 -227h-1090zM178 1964h463l41 -78q84 -156 172 -301h-248l-96 86l-98 88l-117 103z" />
<glyph unicode="&#xc9;" horiz-adv-x="1210" d="M14 0l9 176q20 0 30 4q39 10 57.5 40t18.5 95l2 805v33q-6 51 -17.5 80t-36 47t-63.5 18l9 177h1062l15 -164q12 -115 37 -238h-232l-12 49l-6 17l-6 14q-16 37 -39 46t-99 9h-118q-41 0 -59.5 -8t-42 -40t-23.5 -89v-172h514l-13 -281h-501v-223q0 -84 20.5 -108.5 t102.5 -38.5l30 -2h76q96 0 128 25.5t61 127.5l14 54h233q-33 -162 -43 -226q-18 -121 -18 -227h-1090zM391 1585l60 98l57 99l53 90l51 92h459l-227 -205l-94 -88l-95 -86h-264z" />
<glyph unicode="&#xca;" horiz-adv-x="1210" d="M14 0l9 176q20 0 30 4q39 10 57.5 40t18.5 95l2 805v33q-6 51 -17.5 80t-36 47t-63.5 18l9 177h1062l15 -164q12 -115 37 -238h-232l-12 49l-6 17l-6 14q-16 37 -39 46t-99 9h-118q-41 0 -59.5 -8t-42 -40t-23.5 -89v-172h514l-13 -281h-501v-223q0 -84 20.5 -108.5 t102.5 -38.5l30 -2h76q96 0 128 25.5t61 127.5l14 54h233q-33 -162 -43 -226q-18 -121 -18 -227h-1090zM223 1581l64 115l65 114l47 86l47 89h342l33 -78q80 -182 164 -326h-260q-43 80 -109 145l-49 -49q-41 -47 -63 -96h-281z" />
<glyph unicode="&#xcb;" horiz-adv-x="1210" d="M14 0l9 176q20 0 30 4q39 10 57.5 40t18.5 95l2 805v33q-6 51 -17.5 80t-36 47t-63.5 18l9 177h1062l15 -164q12 -115 37 -238h-232l-12 49l-6 17l-6 14q-16 37 -39 46t-99 9h-118q-41 0 -59.5 -8t-42 -40t-23.5 -89v-172h514l-13 -281h-501v-223q0 -84 20.5 -108.5 t102.5 -38.5l30 -2h76q96 0 128 25.5t61 127.5l14 54h233q-33 -162 -43 -226q-18 -121 -18 -227h-1090zM186 1704q0 184 203 184q170 0 170 -119q0 -41 -20 -94q-27 -72 -127 -86q-49 -6 -84 -6q-142 0 -142 121zM653 1704q0 88 52.5 136t152.5 48q168 0 168 -119 q0 -39 -18 -92q-25 -74 -129 -88q-49 -6 -84 -6q-142 0 -142 121z" />
<glyph unicode="&#xcc;" horiz-adv-x="634" d="M-109 1964h463l41 -78q84 -156 172 -301h-248l-96 86l-98 88l-117 103zM14 0l9 176l14 4q55 16 71.5 33.5t22.5 71.5l2 28v844q0 66 -18.5 96.5t-67.5 40.5l-33 4l9 177h598l-7 -177q-23 0 -32 -4q-80 -18 -80 -135v-823v-31q0 -63 16.5 -87.5t65.5 -37.5l32 -4l-6 -176 h-596z" />
<glyph unicode="&#xcd;" horiz-adv-x="634" d="M14 0l9 176l14 4q55 16 71.5 33.5t22.5 71.5l2 28v844q0 66 -18.5 96.5t-67.5 40.5l-33 4l9 177h598l-7 -177q-23 0 -32 -4q-80 -18 -80 -135v-823v-31q0 -63 16.5 -87.5t65.5 -37.5l32 -4l-6 -176h-596zM104 1585l60 98l57 99l53 90l52 92h458l-227 -205l-94 -88 l-94 -86h-265z" />
<glyph unicode="&#xce;" horiz-adv-x="634" d="M-63 1581l63 115l66 114l47 86l47 89h342l33 -78q80 -182 163 -326h-260q-43 80 -108 145l-49 -49q-41 -47 -64 -96h-280zM14 0l9 176l14 4q55 16 71.5 33.5t22.5 71.5l2 28v844q0 66 -18.5 96.5t-67.5 40.5l-33 4l9 177h598l-7 -177q-23 0 -32 -4q-80 -18 -80 -135v-823 v-31q0 -63 16.5 -87.5t65.5 -37.5l32 -4l-6 -176h-596z" />
<glyph unicode="&#xcf;" horiz-adv-x="634" d="M-100 1704q0 184 202 184q170 0 170 -119q0 -41 -20 -94q-27 -72 -127 -86q-49 -6 -84 -6q-141 0 -141 121zM14 0l9 176l14 4q55 16 71.5 33.5t22.5 71.5l2 28v844q0 66 -18.5 96.5t-67.5 40.5l-33 4l9 177h598l-7 -177q-23 0 -32 -4q-80 -18 -80 -135v-823v-31 q0 -63 16.5 -87.5t65.5 -37.5l32 -4l-6 -176h-596zM367 1704q0 88 52 136t152 48q168 0 168 -119q0 -39 -18 -92q-25 -74 -129 -88q-49 -6 -84 -6q-141 0 -141 121z" />
<glyph unicode="&#xd0;" horiz-adv-x="1382" d="M2 573v314h131v276l-2 19q-8 59 -27.5 82.5t-70.5 31.5l-19 2l9 177q92 0 249.5 -2.5t286.5 -2.5l141 9q43 0 83 -1t87 -12q195 -41 305.5 -181t139.5 -396q2 -18 4 -62.5t2 -109.5v-58q0 -342 -166 -501.5t-500 -159.5l-329 12q-39 0 -157 -5t-155 -5l9 176l22 2 q49 10 68.5 36t19.5 85v274h-131zM502 416q0 -80 35.5 -103.5t150.5 -23.5q135 0 187.5 94t52.5 348l-6 129q-18 160 -56.5 227.5t-122.5 90.5q-39 10 -81 10q-43 0 -72 -12q-88 -39 -88 -150v-139h135v-314h-135v-157z" />
<glyph unicode="&#xd1;" horiz-adv-x="1452" d="M14 0l9 176l22 4q51 10 68.5 42t17.5 116v836q0 66 -15.5 89t-62.5 29l-26 4l-13 2l9 177h518q8 -27 13 -42.5t15 -35.5l52 -90l297 -609l65 -135q6 -10 21 -47q25 -59 32 -82l-22 135q-12 100 -18.5 185.5t-6.5 130.5v248l-4 30q-10 61 -43 96t-80 39l8 177h568l-8 -177 l-19 -4q-53 -10 -68.5 -26.5t-19.5 -71.5l-2 -33v-968v-99v-39l2 -6q0 -23 12 -51h-387l-456 842l-29 69l-10 19l-19 43l6 -49l9 -52l12 -118v-371v-35q0 -90 27.5 -127t91.5 -43l24 -2l-8 -176h-582zM305 1659l14 49q45 119 98.5 170t131.5 51q43 0 104 -16l127 -33 q23 -6 37 -6q37 0 60 47l4 10l266 -80l-14 -51q-82 -221 -238 -221q-29 0 -43 2t-47 12l-141 43q-18 6 -33 6q-39 0 -56 -51l-2 -18z" />
<glyph unicode="&#xd2;" horiz-adv-x="1480" d="M59 754q0 358 178.5 556.5t489.5 198.5q74 0 158 -12q233 -35 379 -199q154 -174 153 -434q0 -438 -169 -666.5t-503 -228.5q-74 0 -157 13q-246 37 -387.5 236.5t-141.5 535.5zM313 1964h463l41 -78q84 -156 172 -301h-248l-96 86l-98 88l-117 103zM461 748 q0 -207 52.5 -312.5t156.5 -134.5q43 -12 82 -12q127 0 196.5 134t69.5 406q0 170 -79 264.5t-202 94.5q-133 0 -204.5 -107.5t-71.5 -332.5z" />
<glyph unicode="&#xd3;" horiz-adv-x="1480" d="M59 754q0 358 178.5 556.5t489.5 198.5q74 0 158 -12q233 -35 379 -199q154 -174 153 -434q0 -438 -169 -666.5t-503 -228.5q-74 0 -157 13q-246 37 -387.5 236.5t-141.5 535.5zM461 748q0 -207 52.5 -312.5t156.5 -134.5q43 -12 82 -12q127 0 196.5 134t69.5 406 q0 170 -79 264.5t-202 94.5q-133 0 -204.5 -107.5t-71.5 -332.5zM526 1585l60 98l57 99l53 90l52 92h458l-227 -205l-94 -88l-94 -86h-265z" />
<glyph unicode="&#xd4;" horiz-adv-x="1480" d="M59 754q0 358 178.5 556.5t489.5 198.5q74 0 158 -12q233 -35 379 -199q154 -174 153 -434q0 -438 -169 -666.5t-503 -228.5q-74 0 -157 13q-246 37 -387.5 236.5t-141.5 535.5zM358 1581l64 115l65 114l48 86l47 89h342l32 -78q80 -182 164 -326h-260q-43 80 -108 145 l-50 -49q-41 -47 -63 -96h-281zM461 748q0 -207 52.5 -312.5t156.5 -134.5q43 -12 82 -12q127 0 196.5 134t69.5 406q0 170 -79 264.5t-202 94.5q-133 0 -204.5 -107.5t-71.5 -332.5z" />
<glyph unicode="&#xd5;" horiz-adv-x="1480" d="M59 754q0 358 178.5 556.5t489.5 198.5q74 0 158 -12q233 -35 379 -199q154 -174 153 -434q0 -438 -169 -666.5t-503 -228.5q-74 0 -157 13q-246 37 -387.5 236.5t-141.5 535.5zM319 1659l15 49q45 119 98 170t131 51q43 0 105 -16l127 -33q23 -6 36 -6q37 0 60 47l4 10 l266 -80l-14 -51q-82 -221 -238 -221q-29 0 -43 2t-47 12l-141 43q-18 6 -33 6q-39 0 -55 -51l-2 -18zM461 748q0 -207 52.5 -312.5t156.5 -134.5q43 -12 82 -12q127 0 196.5 134t69.5 406q0 170 -79 264.5t-202 94.5q-133 0 -204.5 -107.5t-71.5 -332.5z" />
<glyph unicode="&#xd6;" horiz-adv-x="1480" d="M59 754q0 260 84 421.5t254 251.5q-55 29 -55 103q0 20 6 49q29 129 195 129q96 0 127.5 -31.5t31.5 -120.5l-2 -55q12 4 38 6t38 2l41 -8q-6 23 -6 45q0 29 11.5 57.5t34 53t59 38t94.5 13.5q164 0 164 -115q0 -39 -17.5 -88t-66.5 -78q156 -86 237 -219 q90 -145 90 -344q0 -438 -169 -666.5t-503 -228.5q-74 0 -157 13q-246 37 -387.5 236.5t-141.5 535.5zM461 748q0 -207 52.5 -312.5t156.5 -134.5q43 -12 82 -12q127 0 196.5 134t69.5 406q0 170 -79 264.5t-202 94.5q-133 0 -204.5 -107.5t-71.5 -332.5z" />
<glyph unicode="&#xd7;" horiz-adv-x="0" />
<glyph unicode="&#xd8;" horiz-adv-x="1544" d="M59 -2l174 205q-78 78 -114 168q-43 109 -43 272l-2 111q0 358 179 556.5t490 198.5q74 0 158 -12q180 -27 326 -151l108 116h150l-176 -198l10 -33l98 -264l4 -11q6 -16 10.5 -59t4.5 -143q0 -340 -141.5 -538t-391.5 -234q-90 -12 -168 -13q-133 0 -239.5 38 t-190.5 114l-104 -123h-142zM487 621q0 -39 15 -109l485 551l-8 10l-12 17q-82 96 -201 96q-143 0 -211 -127t-68 -438zM555 403l16 -22q74 -92 177 -92q35 0 77 12q96 25 152.5 119t56.5 262v66l-4 83l-2 54v24v39z" />
<glyph unicode="&#xd9;" horiz-adv-x="1443" d="M14 1298l9 177h595l-6 -177l-14 -4l-25 -6q-41 -10 -56 -37.5t-15 -93.5v-622l4 -64q14 -119 67.5 -172t149.5 -53q94 0 147.5 53t67.5 172l4 64v622q0 76 -18.5 100.5t-79.5 36.5l-19 4l9 177h596l-7 -177l-18 -2q-61 -10 -76.5 -28.5t-15.5 -98.5l-2 -28v-541 q0 -131 -18.5 -213t-59.5 -151q-82 -133 -200 -191.5t-310 -58.5q-193 0 -310.5 57t-199.5 193q-41 66 -60.5 151.5t-19.5 212.5v541v28q-8 84 -21.5 101.5t-76.5 25.5zM295 1964h463l41 -78q84 -156 172 -301h-248l-96 86l-99 88l-116 103z" />
<glyph unicode="&#xda;" horiz-adv-x="1443" d="M14 1298l9 177h595l-6 -177l-14 -4l-25 -6q-41 -10 -56 -37.5t-15 -93.5v-622l4 -64q14 -119 67.5 -172t149.5 -53q94 0 147.5 53t67.5 172l4 64v622q0 76 -18.5 100.5t-79.5 36.5l-19 4l9 177h596l-7 -177l-18 -2q-61 -10 -76.5 -28.5t-15.5 -98.5l-2 -28v-541 q0 -131 -18.5 -213t-59.5 -151q-82 -133 -200 -191.5t-310 -58.5q-193 0 -310.5 57t-199.5 193q-41 66 -60.5 151.5t-19.5 212.5v541v28q-8 84 -21.5 101.5t-76.5 25.5zM508 1585l59 98l58 99l53 90l51 92h459l-227 -205l-95 -88l-94 -86h-264z" />
<glyph unicode="&#xdb;" horiz-adv-x="1443" d="M14 1298l9 177h595l-6 -177l-14 -4l-25 -6q-41 -10 -56 -37.5t-15 -93.5v-622l4 -64q14 -119 67.5 -172t149.5 -53q94 0 147.5 53t67.5 172l4 64v622q0 76 -18.5 100.5t-79.5 36.5l-19 4l9 177h596l-7 -177l-18 -2q-61 -10 -76.5 -28.5t-15.5 -98.5l-2 -28v-541 q0 -131 -18.5 -213t-59.5 -151q-82 -133 -200 -191.5t-310 -58.5q-193 0 -310.5 57t-199.5 193q-41 66 -60.5 151.5t-19.5 212.5v541v28q-8 84 -21.5 101.5t-76.5 25.5zM340 1581l63 115l66 114l47 86l47 89h342l33 -78q80 -182 164 -326h-260q-43 80 -109 145l-49 -49 q-41 -47 -63 -96h-281z" />
<glyph unicode="&#xdc;" horiz-adv-x="1466" d="M14 1298l9 177l331 6q-33 29 -32 69q0 51 51 109q43 47 151 47q164 0 164 -111q0 -39 -16.5 -85t-50.5 -83l-9 -129l-14 -4l-25 -6q-41 -10 -56 -37.5t-15 -93.5v-622q0 -129 40 -191.5t132 -85.5q29 -6 55 -6q121 0 191 100q51 70 51 166v621q0 82 -17.5 110.5 t-76.5 44.5l-23 4l2 113q-66 37 -65 119q0 23 6 47q27 131 186 131q29 0 64 -6q109 -16 108 -111q0 -37 -18 -80l-19 -32l334 -4l-8 -177l-17 -2q-59 -10 -79.5 -38.5t-20.5 -104.5l12 -563q0 -307 -152.5 -460t-465.5 -153q-283 0 -440 168q-80 86 -114 186.5t-34 268.5 v541v28q-8 84 -21.5 101.5t-76.5 25.5z" />
<glyph unicode="&#xdd;" horiz-adv-x="1226" d="M-29 1284l2 191h605l-11 -197l-12 -4q-59 -18 -59 -55q0 -23 18 -70l76 -193l22 -49q14 -25 29 -84l31 84l30 62l89 192l6 23q2 8 2 14v14q0 66 -58 72l-22 -2l6 193h530l-6 -177q-31 0 -48 -14t-40 -59l-338 -697v-196v-25q6 -76 17.5 -92t66.5 -35l15 -4l-7 -176h-567 l6 176l19 4q49 10 64.5 27.5t15.5 66.5l2 256l-383 674l-19 29q-33 51 -82 51zM391 1585l60 98l57 99l53 90l51 92h459l-227 -205l-94 -88l-95 -86h-264z" />
<glyph unicode="&#xdf;" horiz-adv-x="1318" d="M14 874l13 226l45 6q35 4 41 10t12 39l2 8l6 74q0 152 128 265.5t327 113.5q131 0 225 -36t152 -114q76 -100 75 -192q0 -121 -133 -299l-18 -23l-17 -22q-20 -27 -20 -41q0 -27 68 -62l28 -12q121 -47 174.5 -90t102.5 -126t49 -165q0 -33 -6 -76q-12 -76 -56 -149 q-68 -111 -166 -165t-241 -54h-51q-23 4 -33 4q-111 12 -221 65l65 213l27 -6q76 -20 139 -20q94 0 144.5 44t50.5 120t-54 112l-100 43l-53 25q-219 115 -219 254q0 51 28 125l17 37l94 129q27 41 39 62.5t17 42t5 30.5q2 12 2 28q0 49 -49 86q-23 16 -49 17 q-37 0 -72.5 -27.5t-51 -72t-20.5 -70t-5 -74.5l-2 -45l-4 -848v-71v-31q0 -74 10 -162h-443l11 184q20 -4 30 -4q6 0 19 4q47 16 47 80l2 49v568q-29 -14 -51 -15q-33 -4 -60 8z" />
<glyph unicode="&#xe0;" horiz-adv-x="1202" d="M59 356q0 51 13 101q39 145 139 206.5t315 61.5l74 -2l123 -6l-2 37l-6 20q-14 49 -56.5 63.5t-166.5 14.5q-51 0 -228 -43l-80 -21l-37 -10l15 289q90 31 178 47t190 16q287 0 410 -84.5t123 -277.5v-436v-78l6 -27q12 -31 78 -47l27 -4l-7 -176h-383q-12 27 -17 54.5 t-5 64.5l6 49q-31 -63 -78 -100q-55 -49 -104 -71t-111 -22q-57 0 -127 15q-240 45 -282 291q-6 37 -7 75zM174 1595h463l41 -77q84 -156 172 -301h-248l-96 86l-98 88l-117 102zM428 360q0 -78 84 -94q14 -4 31.5 -4h36.5q86 8 121.5 44t35.5 108v41v34h-112 q-76 0 -107 -16q-90 -43 -90 -113z" />
<glyph unicode="&#xe1;" horiz-adv-x="1202" d="M59 356q0 51 13 101q39 145 139 206.5t315 61.5l74 -2l123 -6l-2 37l-6 20q-14 49 -56.5 63.5t-166.5 14.5q-51 0 -228 -43l-80 -21l-37 -10l15 289q90 31 178 47t190 16q287 0 410 -84.5t123 -277.5v-436v-78l6 -27q12 -31 78 -47l27 -4l-7 -176h-383q-12 27 -17 54.5 t-5 64.5l6 49q-31 -63 -78 -100q-55 -49 -104 -71t-111 -22q-57 0 -127 15q-240 45 -282 291q-6 37 -7 75zM387 1217l59 98l58 98l53 90l51 92h459l-227 -204l-95 -88l-94 -86h-264zM428 360q0 -78 84 -94q14 -4 31.5 -4h36.5q86 8 121.5 44t35.5 108v41v34h-112 q-76 0 -107 -16q-90 -43 -90 -113z" />
<glyph unicode="&#xe2;" horiz-adv-x="1202" d="M59 356q0 51 13 101q39 145 139 206.5t315 61.5l74 -2l123 -6l-2 37l-6 20q-14 49 -56.5 63.5t-166.5 14.5q-51 0 -228 -43l-80 -21l-37 -10l15 289q90 31 178 47t190 16q287 0 410 -84.5t123 -277.5v-436v-78l6 -27q12 -31 78 -47l27 -4l-7 -176h-383q-12 27 -17 54.5 t-5 64.5l6 49q-31 -63 -78 -100q-55 -49 -104 -71t-111 -22q-57 0 -127 15q-240 45 -282 291q-6 37 -7 75zM219 1212l64 115l65 115l47 86l47 88h342l33 -78q80 -182 164 -326h-260q-43 80 -109 146l-49 -49q-41 -47 -63 -97h-281zM428 360q0 -78 84 -94q14 -4 31.5 -4h36.5 q86 8 121.5 44t35.5 108v41v34h-112q-76 0 -107 -16q-90 -43 -90 -113z" />
<glyph unicode="&#xe3;" horiz-adv-x="1202" d="M59 356q0 51 13 101q39 145 139 206.5t315 61.5l74 -2l123 -6l-2 37l-6 20q-14 49 -56.5 63.5t-166.5 14.5q-51 0 -228 -43l-80 -21l-37 -10l15 289q90 31 178 47t190 16q287 0 410 -84.5t123 -277.5v-436v-78l6 -27q12 -31 78 -47l27 -4l-7 -176h-383q-12 27 -17 54.5 t-5 64.5l6 49q-31 -63 -78 -100q-55 -49 -104 -71t-111 -22q-57 0 -127 15q-240 45 -282 291q-6 37 -7 75zM180 1290l15 49q45 119 98 170.5t131 51.5q43 0 104 -17l127 -33q23 -6 37 -6q37 0 60 47l4 11l266 -80l-14 -51q-82 -221 -238 -222q-29 0 -43 2t-47 13l-141 43 q-18 6 -33 6q-39 0 -55 -51l-2 -19zM428 360q0 -78 84 -94q14 -4 31.5 -4h36.5q86 8 121.5 44t35.5 108v41v34h-112q-76 0 -107 -16q-90 -43 -90 -113z" />
<glyph unicode="&#xe4;" horiz-adv-x="1202" d="M59 356q0 51 13 101q39 145 139 206.5t315 61.5l74 -2l123 -6l-2 37l-6 20q-14 49 -56.5 63.5t-166.5 14.5q-51 0 -228 -43l-80 -21l-37 -10l15 289q90 31 178 47t190 16q287 0 410 -84.5t123 -277.5v-436v-78l6 -27q12 -31 78 -47l27 -4l-7 -176h-383q-12 27 -17 54.5 t-5 64.5l6 49q-31 -63 -78 -100q-55 -49 -104 -71t-111 -22q-57 0 -127 15q-240 45 -282 291q-6 37 -7 75zM209 1335q0 184 203 185q170 0 170 -119q0 -45 -21 -94q-27 -72 -129 -86q-49 -6 -84 -7q-139 0 -139 121zM428 360q0 -78 84 -94q14 -4 31.5 -4h36.5q86 8 121.5 44 t35.5 108v41v34h-112q-76 0 -107 -16q-90 -43 -90 -113zM676 1335q0 88 52 136.5t153 48.5q168 0 168 -119q0 -39 -19 -92q-25 -74 -129 -88q-49 -6 -84 -7q-141 0 -141 121z" />
<glyph unicode="&#xe5;" horiz-adv-x="1202" d="M59 356q0 51 13 101q39 145 139 206.5t315 61.5l74 -2l123 -6l-2 37l-6 20q-14 49 -56.5 63.5t-166.5 14.5q-51 0 -228 -43l-80 -21l-37 -10l15 289q90 31 178 47t190 16q287 0 410 -84.5t123 -277.5v-436v-78l6 -27q12 -31 78 -47l27 -4l-7 -176h-383q-12 27 -17 54.5 t-5 64.5l6 49q-31 -63 -78 -100q-55 -49 -104 -71t-111 -22q-57 0 -127 15q-240 45 -282 291q-6 37 -7 75zM369 1341q0 102 70.5 173t172.5 71q100 0 171 -70.5t71 -173.5q0 -100 -69.5 -171.5t-172.5 -71.5q-102 0 -172.5 70.5t-70.5 172.5zM428 360q0 -78 84 -94 q14 -4 31.5 -4h36.5q86 8 121.5 44t35.5 108v41v34h-112q-76 0 -107 -16q-90 -43 -90 -113zM537 1341q0 -29 22 -51t53 -22t52.5 21.5t21.5 51.5q0 31 -21.5 52.5t-52.5 21.5t-53 -20.5t-22 -53.5z" />
<glyph unicode="&#xe6;" horiz-adv-x="1742" d="M59 369q0 53 15 98q35 121 108.5 181.5t216.5 80.5l74 6h215l-8 35q-8 35 -44 57.5t-108 22.5q-10 2 -34 2q-78 0 -228 -43q-33 -8 -68.5 -19.5t-72.5 -27.5l18 301l62 18q47 12 93 22.5t91 16.5q98 12 178 13q111 0 182.5 -20.5t135.5 -63.5q59 47 124.5 69.5 t170.5 22.5q221 0 340.5 -96.5t158.5 -319.5q14 -72 15 -158l-2 -75l-682 -5v-41q10 -104 102 -159q53 -31 107 -31q94 0 213 98l43 33l20 19l191 -168l-54 -62q-197 -207 -463 -207q-25 0 -56.5 3t-47.5 5q-98 14 -166 48t-121 92q-66 -66 -161 -104t-185 -38 q-143 0 -241.5 86t-124.5 234q-6 37 -7 74zM412 365q0 -10 4 -27q25 -78 94 -78q20 0 63 14l35 21l6 4l35 27l33 26q-6 20 -8 45t-2 56q0 27 2 41h-105q-73 0 -118 -45q-39 -41 -39 -84zM1014 692h358l-4 37q-14 70 -41 109t-71 55t-70 16q-135 0 -168 -176z" />
<glyph unicode="&#xe7;" horiz-adv-x="1064" d="M59 549q0 279 138.5 429t390.5 150l86 2q92 0 250 -20l65 -10q0 -68 6 -201t6 -199l-243 5l2 12l2 28q0 59 -32 95.5t-87 36.5q-37 0 -74 -15q-72 -25 -106 -84q-41 -70 -41 -198v-72q0 -123 53 -186.5t152 -63.5q66 0 153 35q47 20 97 55l143 -209q-127 -119 -305 -153 l-21 -4l-16 -2l-66 -144q31 0 60 -12l24 -14l21 -11l8 -4q12 -6 29 -39l8 -16l6 -14q8 -25 8 -56q0 -78 -73.5 -128t-202.5 -50q-27 0 -64 6t-47 8l-47 11l35 133l6 -2l10 -6l19 -9l14 -6q18 -8 45 -8h10l31 4l39 8q33 12 33 43q0 10 -6 21q-16 27 -56 26q-23 0 -45 -8 l-22 -6l-13 -6l-34 90q92 76 172 184l-35 2q-233 20 -359.5 165t-126.5 407z" />
<glyph unicode="&#xe8;" horiz-adv-x="1124" d="M55 518q0 59 6.5 114.5t22.5 121.5q37 154 136 248t253 118q74 12 139 13q223 0 348 -137.5t125 -393.5l-6 -88l-2 -14l-6 -21h-672l4 -33q39 -182 201 -182q84 0 182 62q16 10 33 22q29 20 45 35l183 -184l-52 -49q-78 -68 -155.5 -108t-147 -50t-91 -11t-36.5 -1 q-231 0 -370.5 143t-139.5 395zM135 1595h463l41 -77q84 -156 172 -301h-248l-96 86l-98 88l-117 102zM393 690h371v23q-12 164 -174 164q-27 0 -58 -7q-111 -16 -137 -153z" />
<glyph unicode="&#xe9;" horiz-adv-x="1124" d="M55 518q0 59 6.5 114.5t22.5 121.5q37 154 136 248t253 118q74 12 139 13q223 0 348 -137.5t125 -393.5l-6 -88l-2 -14l-6 -21h-672l4 -33q39 -182 201 -182q84 0 182 62q16 10 33 22q29 20 45 35l183 -184l-52 -49q-78 -68 -155.5 -108t-147 -50t-91 -11t-36.5 -1 q-231 0 -370.5 143t-139.5 395zM348 1217l60 98l57 98l53 90l51 92h459l-227 -204l-94 -88l-95 -86h-264zM393 690h371v23q-12 164 -174 164q-27 0 -58 -7q-111 -16 -137 -153z" />
<glyph unicode="&#xea;" horiz-adv-x="1124" d="M55 518q0 59 6.5 114.5t22.5 121.5q37 154 136 248t253 118q74 12 139 13q223 0 348 -137.5t125 -393.5l-6 -88l-2 -14l-6 -21h-672l4 -33q39 -182 201 -182q84 0 182 62q16 10 33 22q29 20 45 35l183 -184l-52 -49q-78 -68 -155.5 -108t-147 -50t-91 -11t-36.5 -1 q-231 0 -370.5 143t-139.5 395zM180 1212l64 115l65 115l47 86l47 88h342l33 -78q80 -182 164 -326h-260q-43 80 -109 146l-49 -49q-41 -47 -63 -97h-281zM393 690h371v23q-12 164 -174 164q-27 0 -58 -7q-111 -16 -137 -153z" />
<glyph unicode="&#xeb;" horiz-adv-x="1124" d="M55 518q0 59 6.5 114.5t22.5 121.5q37 154 136 248t253 118q74 12 139 13q223 0 348 -137.5t125 -393.5l-6 -88l-2 -14l-6 -21h-672l4 -33q39 -182 201 -182q84 0 182 62q16 10 33 22q29 20 45 35l183 -184l-52 -49q-78 -68 -155.5 -108t-147 -50t-91 -11t-36.5 -1 q-231 0 -370.5 143t-139.5 395zM143 1335q0 184 203 185q170 0 170 -119q0 -41 -20 -94q-27 -72 -127 -86q-49 -6 -84 -7q-142 0 -142 121zM393 690h371v23q-12 164 -174 164q-27 0 -58 -7q-111 -16 -137 -153zM610 1335q0 88 52.5 136.5t152.5 48.5q168 0 168 -119 q0 -39 -18 -92q-25 -74 -129 -88q-49 -6 -84 -7q-142 0 -142 121z" />
<glyph unicode="&#xec;" horiz-adv-x="608" d="M-123 1595h463l41 -77q84 -156 172 -301h-248l-96 86l-98 88l-117 102zM29 0l8 176l22 6q55 20 73 60.5t18 152.5v398l-3 32q0 51 -14 69.5t-59 25.5l-33 6h-12l8 139l215 37h229l-2 -39l-2 -41l-2 -39v-45v-567v-31q0 -82 16.5 -108.5t73.5 -47.5l29 -8l-8 -176h-557z " />
<glyph unicode="&#xed;" horiz-adv-x="608" d="M29 0l8 176l22 6q55 20 73 60.5t18 152.5v398l-3 32q0 51 -14 69.5t-59 25.5l-33 6h-12l8 139l215 37h229l-2 -39l-2 -41l-2 -39v-45v-567v-31q0 -82 16.5 -108.5t73.5 -47.5l29 -8l-8 -176h-557zM90 1217l60 98l57 98l53 90l51 92h459l-227 -204l-94 -88l-95 -86h-264z " />
<glyph unicode="&#xee;" horiz-adv-x="608" d="M-78 1212l64 115l65 115l47 86l47 88h342l33 -78q80 -182 164 -326h-260q-43 80 -109 146l-49 -49q-41 -47 -63 -97h-281zM29 0l8 176l22 6q55 20 73 60.5t18 152.5v398l-3 32q0 51 -14 69.5t-59 25.5l-33 6h-12l8 139l215 37h229l-2 -39l-2 -41l-2 -39v-45v-567v-31 q0 -82 16.5 -108.5t73.5 -47.5l29 -8l-8 -176h-557z" />
<glyph unicode="&#xef;" horiz-adv-x="608" d="M-115 1335q0 184 203 185q170 0 170 -119q0 -41 -20 -94q-27 -72 -127 -86q-49 -6 -84 -7q-142 0 -142 121zM29 0l8 176l22 6q55 20 73 60.5t18 152.5v398l-3 32q0 51 -14 69.5t-59 25.5l-33 6h-12l8 139l215 37h229l-2 -39l-2 -41l-2 -39v-45v-567v-31 q0 -82 16.5 -108.5t73.5 -47.5l29 -8l-8 -176h-557zM352 1335q0 88 52.5 136.5t152.5 48.5q168 0 168 -119q0 -39 -18 -92q-25 -74 -129 -88q-49 -6 -84 -7q-142 0 -142 121z" />
<glyph unicode="&#xf0;" horiz-adv-x="1136" d="M-12 1194l327 188q-72 104 -143 164l322 117q78 -51 127 -104l323 188l160 -272l-289 -166q113 -168 195 -351q76 -168 96 -284q8 -51 12 -90t4 -86q0 -252 -139 -389.5t-391 -137.5h-60q-45 6 -65 9q-326 39 -416 356q-27 94 -26 184q0 178 104 295t277 137q49 6 79 6 q61 0 117 -26q-58 78 -119 184l-338 -194zM371 489q0 -33 6 -73q27 -137 139 -166q43 -12 78 -12q127 0 170 168q2 8 2 24v29q0 49 -3 80.5t-9 50.5q-39 86 -174 98q-209 0 -209 -199z" />
<glyph unicode="&#xf1;" horiz-adv-x="1298" d="M29 0l8 176l10 2l25 8q47 12 61 40t14 110v475q0 66 -15 85t-77 28l-26 2l8 139l225 39h174q10 -33 15 -70v-10v-43v-100l20 22l64 60q59 55 98 82.5t80 46.5q94 41 180 41q150 0 233 -136q25 -39 34 -83t9 -121v-471v-50v-8q6 -68 99 -84l16 -4l-10 -176h-557l4 176 l16 2q57 10 75.5 29.5t25.5 77.5l2 28v367v27q-6 74 -68 73q-27 0 -55 -14q-51 -25 -94 -61q-51 -45 -119 -130l-27 -36v-230q0 -78 17.5 -97t95.5 -34l14 -2l-8 -176h-567zM229 1290l15 49q45 119 98 170.5t131 51.5q43 0 105 -17l127 -33q23 -6 36 -6q37 0 60 47l4 11 l266 -80l-14 -51q-82 -221 -238 -222q-29 0 -43 2t-47 13l-141 43q-18 6 -33 6q-39 0 -55 -51l-2 -19z" />
<glyph unicode="&#xf2;" d="M59 565q0 274 146.5 423t417.5 149q250 0 397 -127t170 -357q4 -29 4 -54.5v-49.5q0 -279 -149.5 -428.5t-421.5 -149.5q-274 0 -419 152.5t-145 441.5zM201 1595h463l41 -77q84 -156 172 -301h-248l-97 86l-98 88l-117 102zM430 532q0 -152 49 -219t148 -67 q96 0 146 67.5t50 218.5v43v9l-4 61q0 102 -52 158.5t-136 56.5q-88 0 -142.5 -55t-54.5 -160l-4 -59v-11v-43z" />
<glyph unicode="&#xf3;" d="M59 565q0 274 146.5 423t417.5 149q250 0 397 -127t170 -357q4 -29 4 -54.5v-49.5q0 -279 -149.5 -428.5t-421.5 -149.5q-274 0 -419 152.5t-145 441.5zM414 1217l59 98l57 98l54 90l51 92h459l-228 -204l-94 -88l-94 -86h-264zM430 532q0 -152 49 -219t148 -67 q96 0 146 67.5t50 218.5v43v9l-4 61q0 102 -52 158.5t-136 56.5q-88 0 -142.5 -55t-54.5 -160l-4 -59v-11v-43z" />
<glyph unicode="&#xf4;" d="M59 565q0 274 146.5 423t417.5 149q250 0 397 -127t170 -357q4 -29 4 -54.5v-49.5q0 -279 -149.5 -428.5t-421.5 -149.5q-274 0 -419 152.5t-145 441.5zM246 1212l63 115l66 115l47 86l47 88h342l33 -78q80 -182 164 -326h-260q-43 80 -109 146l-49 -49q-41 -47 -64 -97 h-280zM430 532q0 -152 49 -219t148 -67q96 0 146 67.5t50 218.5v43v9l-4 61q0 102 -52 158.5t-136 56.5q-88 0 -142.5 -55t-54.5 -160l-4 -59v-11v-43z" />
<glyph unicode="&#xf5;" d="M59 565q0 274 146.5 423t417.5 149q250 0 397 -127t170 -357q4 -29 4 -54.5v-49.5q0 -279 -149.5 -428.5t-421.5 -149.5q-274 0 -419 152.5t-145 441.5zM207 1290l14 49q45 119 98.5 170.5t131.5 51.5q43 0 104 -17l127 -33q23 -6 37 -6q37 0 59 47l4 11l267 -80l-15 -51 q-82 -221 -237 -222q-29 0 -43.5 2t-46.5 13l-142 43q-18 6 -33 6q-39 0 -55 -51l-2 -19zM430 532q0 -152 49 -219t148 -67q96 0 146 67.5t50 218.5v43v9l-4 61q0 102 -52 158.5t-136 56.5q-88 0 -142.5 -55t-54.5 -160l-4 -59v-11v-43z" />
<glyph unicode="&#xf6;" d="M59 565q0 274 146.5 423t417.5 149q250 0 397 -127t170 -357q4 -29 4 -54.5v-49.5q0 -279 -149.5 -428.5t-421.5 -149.5q-274 0 -419 152.5t-145 441.5zM203 1335q0 184 203 185q168 0 167 -119q0 -41 -18 -94q-27 -72 -129 -86q-49 -6 -84 -7q-139 0 -139 121zM430 532 q0 -152 49 -219t148 -67q96 0 146 67.5t50 218.5v43v9l-4 61q0 102 -52 158.5t-136 56.5q-88 0 -142.5 -55t-54.5 -160l-4 -59v-11v-43zM670 1335q0 88 52 136.5t152 48.5q168 0 168 -119q0 -39 -18 -92q-29 -74 -129 -88q-49 -6 -84 -7q-141 0 -141 121z" />
<glyph unicode="&#xf8;" d="M59 565q0 270 147.5 422t411.5 152h74q35 -6 49 -9q109 -14 211 -71l86 129h107l-127 -174l16 -15l13 -14q121 -131 143 -328q4 -29 4 -54v-52q0 -279 -147.5 -430.5t-417.5 -151.5q-29 0 -66 3t-57 5q-94 10 -193 62l-63 -96h-111l109 145q-86 59 -131 145 q-53 102 -54 246zM432 538.5q0 -28.5 2 -61.5l17 -104l313 436q-37 35 -90 47q-31 8 -62 8q-147 0 -178 -225q-2 -12 -2 -45v-55.5zM496 295q28 -25 77 -39q37 -10 68 -10q84 0 133 72.5t49 211.5v41v35q-4 27 -4 39l-10 80z" />
<glyph unicode="&#xf9;" horiz-adv-x="1284" d="M14 926l9 139l217 37h243q-23 -178 -22 -397v-222v-34q0 -53 20.5 -76t73.5 -23h25q18 4 43.5 6t66.5 30t101 93l43 49v277v26q-4 53 -25 74t-66 21h-26h-10l-7 139l213 37h258l-10 -146l2 -122v-494q0 -86 16.5 -118t69.5 -42l17 -2l10 -2l-8 -176h-404q-8 33 -12 77 t-4 87t6 90l-78 -86l-16 -16l-47 -48q-129 -123 -264 -122q-31 0 -49.5 2t-55.5 12q-125 33 -169 110.5t-44 274.5v381v18l-2 66q0 47 -19.5 64.5t-74.5 17.5zM215 1595h463l41 -77q84 -156 172 -301h-248l-96 86l-98 88l-117 102z" />
<glyph unicode="&#xfa;" horiz-adv-x="1284" d="M14 926l9 139l217 37h243q-23 -178 -22 -397v-222v-34q0 -53 20.5 -76t73.5 -23h25q18 4 43.5 6t66.5 30t101 93l43 49v277v26q-4 53 -25 74t-66 21h-26h-10l-7 139l213 37h258l-10 -146l2 -122v-494q0 -86 16.5 -118t69.5 -42l17 -2l10 -2l-8 -176h-404q-8 33 -12 77 t-4 87t6 90l-78 -86l-16 -16l-47 -48q-129 -123 -264 -122q-31 0 -49.5 2t-55.5 12q-125 33 -169 110.5t-44 274.5v381v18l-2 66q0 47 -19.5 64.5t-74.5 17.5zM428 1217l59 98l58 98l53 90l51 92h459l-227 -204l-95 -88l-94 -86h-264z" />
<glyph unicode="&#xfb;" horiz-adv-x="1284" d="M14 926l9 139l217 37h243q-23 -178 -22 -397v-222v-34q0 -53 20.5 -76t73.5 -23h25q18 4 43.5 6t66.5 30t101 93l43 49v277v26q-4 53 -25 74t-66 21h-26h-10l-7 139l213 37h258l-10 -146l2 -122v-494q0 -86 16.5 -118t69.5 -42l17 -2l10 -2l-8 -176h-404q-8 33 -12 77 t-4 87t6 90l-78 -86l-16 -16l-47 -48q-129 -123 -264 -122q-31 0 -49.5 2t-55.5 12q-125 33 -169 110.5t-44 274.5v381v18l-2 66q0 47 -19.5 64.5t-74.5 17.5zM260 1212l64 115l65 115l47 86l47 88h342l33 -78q80 -182 164 -326h-260q-43 80 -109 146l-49 -49 q-41 -47 -63 -97h-281z" />
<glyph unicode="&#xfc;" horiz-adv-x="1290" d="M14 926l9 139l217 37h243q-23 -178 -22 -397v-222v-34q0 -53 20.5 -76t73.5 -23h25q18 4 43.5 6t66.5 30t101 93l43 49v277v26q-4 53 -25 74t-66 21h-26h-10l-7 139l213 37h258l-10 -146l2 -122v-494q0 -86 16.5 -118t69.5 -42l17 -2l10 -2l-8 -176h-404q-8 33 -12 77 t-4 87t6 90l-78 -86l-16 -16l-47 -48q-129 -123 -264 -122q-31 0 -49.5 2t-55.5 12q-125 33 -169 110.5t-44 274.5v381v18l-2 66q0 47 -19.5 64.5t-74.5 17.5zM209 1335q0 88 52 136.5t153 48.5q168 0 168 -119q0 -41 -19 -94q-27 -72 -129 -86q-49 -6 -84 -7 q-141 0 -141 121zM678 1335q0 184 203 185q168 0 168 -119q0 -39 -19 -92q-25 -74 -129 -88q-49 -6 -84 -7q-139 0 -139 121z" />
<glyph unicode="&#xfd;" horiz-adv-x="1150" d="M-14 926l8 176h530l-8 -176h-12q-39 -4 -49.5 -17.5t-10.5 -52.5l5 -37q2 -20 11 -52t34 -103l53 -156l12 -37l23 -59q6 -20 12 -49t6 -54q0 43 7 71t32 103l37 111q72 217 72 274q0 45 -54 58h-16l8 176h479l-8 -191q-16 0 -37 -10q-47 -18 -61 -76l-12 -41 q-47 -164 -127 -370q-98 -258 -254 -607l-144 -301l-368 -2l84 144l84 145l106 189q-84 150 -144.5 294t-152.5 412l-31 94l-12 37q-16 47 -25.5 62.5t-29.5 28t-47 16.5zM346 1217l60 98l57 98l53 90l51 92h459l-227 -204l-94 -88l-95 -86h-264z" />
<glyph unicode="&#xff;" horiz-adv-x="1150" d="M-14 926l8 176h530l-8 -176h-12q-39 -4 -49.5 -17.5t-10.5 -52.5l5 -37q2 -20 11 -52t34 -103l53 -156l12 -37l23 -59q6 -20 12 -49t6 -54q0 43 7 71t32 103l37 111q72 217 72 274q0 45 -54 58h-16l8 176h479l-8 -191q-16 0 -37 -10q-47 -18 -61 -76l-12 -41 q-47 -164 -127 -370q-98 -258 -254 -607l-144 -301l-368 -2l84 144l84 145l106 189q-84 150 -144.5 294t-152.5 412l-31 94l-12 37q-16 47 -25.5 62.5t-29.5 28t-47 16.5zM158 1335q0 184 202 185q170 0 170 -119q0 -41 -20 -94q-27 -72 -127 -86q-49 -6 -84 -7 q-141 0 -141 121zM625 1335q0 88 52 136.5t152 48.5q168 0 168 -119q0 -39 -18 -92q-25 -74 -129 -88q-49 -6 -84 -7q-141 0 -141 121z" />
<glyph unicode="&#x152;" horiz-adv-x="1886" d="M55 680q0 92 15.5 184t48.5 193q57 174 153.5 270t241.5 129q47 10 90 14.5t88 4.5q39 0 137.5 -2.5t131.5 -2.5l161 5h623l6 -99l6 -96l10 -121l11 -119h-232q0 37 -12 81t-29.5 65.5t-44.5 21.5h-88h-18q-59 0 -75.5 -14t-16.5 -68v-55v-166h411l-12 -280h-399v-240 q0 -80 25.5 -107.5t94.5 -27.5l80 6q25 0 53.5 15.5t43 43t30.5 105.5l2 18l236 -2l-12 -110l-15 -109l-12 -108l-14 -109h-443l-385 10q-96 0 -129 -2q-90 -10 -151 -14q-55 0 -111.5 7t-130.5 32q-158 51 -260 223q-109 182 -109 424zM449 676q0 -115 18 -176.5t59 -108.5 q92 -104 213 -104q16 0 25 2q76 8 101.5 37.5t25.5 113.5l2 27l-2 580q0 47 -2 57q-3 15 -19 35q-39 61 -125 61q-35 0 -90 -16q-90 -31 -143 -119q-63 -104 -63 -279v-110z" />
<glyph unicode="&#x153;" horiz-adv-x="1953" d="M57 584q0 266 157 412.5t433 146.5q164 0 261 -32.5t163 -106.5l37 30q80 59 154.5 79t187.5 20q217 0 332.5 -130.5t115.5 -377.5l5 -76v-55v-29l-695 -2l6 -45q16 -74 72.5 -118t132.5 -44q74 0 154 49l43 29l57 53l203 -170l-47 -51q-123 -117 -229.5 -156t-294.5 -39 q-170 0 -295 113q-51 -47 -109.5 -67.5t-183.5 -36.5q-53 -6 -103 -7q-229 0 -375.5 130t-175.5 364q-6 61 -6 117zM434 573q1 -92 19 -147q29 -96 80 -139t129 -43q80 0 131 43t81 139q6 20 10.5 41.5t4.5 48.5v31v26q0 92 -15 142q-31 98 -81 140t-131 42 q-84 0 -131.5 -41t-79.5 -141q-8 -29 -12.5 -58.5t-4.5 -83.5zM1223 666h356v39q0 61 -29.5 103t-76 58.5t-82.5 16.5q-133 0 -164 -178q-4 -12 -4 -39z" />
<glyph unicode="&#x178;" horiz-adv-x="1226" d="M-29 1284l2 191h605l-11 -197l-12 -4q-59 -18 -59 -55q0 -23 18 -70l76 -193l22 -49q14 -25 29 -84l31 84l30 62l89 192l6 23q2 8 2 14v14q0 66 -58 72l-22 -2l6 193h530l-6 -177q-31 0 -48 -14t-40 -59l-338 -697v-196v-25q6 -76 17.5 -92t66.5 -35l15 -4l-7 -176h-567 l6 176l19 4q49 10 64.5 27.5t15.5 66.5l2 256l-383 674l-19 29q-33 51 -82 51zM195 1704q0 184 202 184q170 0 170 -119q0 -41 -20 -94q-27 -72 -127 -86q-49 -6 -84 -6q-141 0 -141 121zM662 1704q0 88 52 136t152 48q168 0 168 -119q0 -39 -18 -92q-25 -74 -129 -88 q-49 -6 -84 -6q-141 0 -141 121z" />
<glyph unicode="&#x2c6;" horiz-adv-x="761" d="M0 1212l63 115l66 115l47 86l47 88h342l33 -78q80 -182 164 -326h-260q-43 80 -109 146l-49 -49q-41 -47 -63 -97h-281z" />
<glyph unicode="&#x2dc;" horiz-adv-x="841" d="M0 1290l14 49q45 119 98.5 170.5t131.5 51.5q43 0 104 -17l127 -33q23 -6 37 -6q37 0 59 47l4 11l267 -80l-15 -51q-82 -221 -237 -222q-29 0 -43.5 2t-46.5 13l-142 43q-18 6 -32 6q-39 0 -56 -51l-2 -19z" />
<glyph unicode="&#x2000;" horiz-adv-x="992" />
<glyph unicode="&#x2001;" horiz-adv-x="1985" />
<glyph unicode="&#x2002;" horiz-adv-x="992" />
<glyph unicode="&#x2003;" horiz-adv-x="1985" />
<glyph unicode="&#x2004;" horiz-adv-x="661" />
<glyph unicode="&#x2005;" horiz-adv-x="496" />
<glyph unicode="&#x2006;" horiz-adv-x="330" />
<glyph unicode="&#x2007;" horiz-adv-x="330" />
<glyph unicode="&#x2008;" horiz-adv-x="248" />
<glyph unicode="&#x2009;" horiz-adv-x="397" />
<glyph unicode="&#x200a;" horiz-adv-x="110" />
<glyph unicode="&#x2010;" horiz-adv-x="841" d="M45 512q78 156 78 315h674q-59 -145 -82 -315l-160 8q-86 0 -290 -4t-220 -4z" />
<glyph unicode="&#x2011;" horiz-adv-x="841" d="M45 512q78 156 78 315h674q-59 -145 -82 -315l-160 8q-86 0 -290 -4t-220 -4z" />
<glyph unicode="&#x2012;" horiz-adv-x="841" d="M45 512q78 156 78 315h674q-59 -145 -82 -315l-160 8q-86 0 -290 -4t-220 -4z" />
<glyph unicode="&#x2013;" horiz-adv-x="1273" d="M84 573v314h1106v-314h-1106z" />
<glyph unicode="&#x2014;" horiz-adv-x="1202" d="M45 453v340h1112v-340h-1112z" />
<glyph unicode="&#x2018;" horiz-adv-x="526" d="M51 975q0 96 35 186q45 115 152 256q28 41 69 78l158 -117q-96 -98 -174 -235q14 4 43 4q61 0 102 -45t41 -111q0 -25 -4 -43t-16 -45q-35 -72 -113 -104q-45 -16 -86 -17q-84 0 -145.5 55.5t-61.5 137.5z" />
<glyph unicode="&#x2019;" horiz-adv-x="526" d="M51 1288q0 20 4 42t17 46q35 74 112 105q45 16 84 16q84 0 145.5 -55.5t61.5 -136.5q2 -20 2 -31q0 -84 -43 -182.5t-145 -229.5q-35 -47 -70 -78l-156 115q49 53 93.5 113.5t79.5 124.5q-12 -4 -41 -4q-63 0 -103.5 44t-40.5 111z" />
<glyph unicode="&#x201a;" horiz-adv-x="526" d="M51 129q0 20 4 42t17 46q37 76 112 102q16 8 41 12.5t43 4.5q86 0 146.5 -54.5t60.5 -138.5q2 -20 2 -30q0 -82 -41 -174q-47 -106 -147 -238q-23 -29 -33 -41t-37 -37l-156 117q53 57 94.5 112.5t78.5 122.5q-25 -4 -41 -2q-63 0 -103.5 44t-40.5 112z" />
<glyph unicode="&#x201c;" horiz-adv-x="1015" d="M51 975q0 96 35 186q45 115 152 256q28 41 69 78l158 -117q-96 -98 -174 -235q14 4 43 4q61 0 102 -45t41 -111q0 -25 -4 -43t-16 -45q-35 -72 -113 -104q-45 -16 -86 -17q-84 0 -145.5 55.5t-61.5 137.5zM539 975q0 96 34 186q45 115 152 256q16 20 25 31q20 24 47 47 l155 -117q-98 -102 -172 -235q12 4 41 4q63 0 103.5 -44t40.5 -112q0 -20 -4.5 -41.5t-16.5 -46.5q-35 -74 -113 -104q-45 -16 -83 -17q-82 0 -141.5 53.5t-67.5 139.5z" />
<glyph unicode="&#x201d;" horiz-adv-x="1015" d="M51 1288q0 20 4 42t17 46q35 74 112 105q45 16 84 16q84 0 145.5 -55.5t61.5 -136.5q2 -20 2 -31q0 -84 -43 -182.5t-145 -229.5q-35 -47 -70 -78l-156 115q49 53 93.5 113.5t79.5 124.5q-12 -4 -41 -4q-63 0 -103.5 44t-40.5 111zM539 1288q0 25 4 43.5t16 44.5 q35 74 113 105q45 16 84 16q82 0 141 -54t68 -138q0 -96 -35 -187q-45 -115 -152 -256q-28 -41 -69 -78l-158 115q98 102 174 238q-14 -4 -43 -4q-61 0 -102 45t-41 110z" />
<glyph unicode="&#x201e;" horiz-adv-x="1015" d="M51 129q0 20 4 42t17 46q37 76 112 102q16 8 41 12.5t43 4.5q86 0 146.5 -54.5t60.5 -138.5q2 -20 2 -30q0 -82 -41 -174q-47 -106 -147 -238q-23 -29 -33 -41t-37 -37l-156 117q53 57 94.5 112.5t78.5 122.5q-25 -4 -41 -2q-63 0 -103.5 44t-40.5 112zM539 129 q0 25 4 43t16 45q37 76 113 102q16 8 40.5 12.5t43.5 4.5q82 0 141 -54.5t68 -138.5q0 -96 -35 -186q-43 -113 -152 -256l-69 -78l-158 117q100 106 174 235q-29 -4 -43 -2q-61 0 -102 45t-41 111z" />
<glyph unicode="&#x2022;" horiz-adv-x="718" d="M70 737q0 121 86 205t204 84q117 0 203 -84t86 -205q0 -123 -84 -205.5t-205 -82.5q-123 0 -206.5 83.5t-83.5 204.5z" />
<glyph unicode="&#x2026;" horiz-adv-x="1636" d="M76 170q0 82 57 139.5t139 57.5t139.5 -57.5t57.5 -139.5q0 -84 -57.5 -140.5t-139.5 -56.5t-139 57.5t-57 139.5zM621 170q0 82 57 139.5t139 57.5t140.5 -58.5t58.5 -138.5q0 -84 -58.5 -140.5t-140.5 -56.5t-139 57.5t-57 139.5zM1167 170q0 82 57.5 139.5t139.5 57.5 t139.5 -57.5t57.5 -139.5t-57.5 -139.5t-139.5 -57.5t-139.5 57.5t-57.5 139.5z" />
<glyph unicode="&#x202f;" horiz-adv-x="397" />
<glyph unicode="&#x2039;" horiz-adv-x="700" d="M45 547q59 113 113 229q47 106 98 238h315q-82 -217 -137 -467l43 -92q82 -170 178 -318h-356q-27 55 -47 90q-8 14 -51 88q-66 113 -156 232z" />
<glyph unicode="&#x203a;" horiz-adv-x="700" d="M45 1014h358l99 -180q31 -51 71.5 -113t81.5 -119q-119 -227 -211 -465h-313l49 146q49 147 88 319l-43 92q-74 154 -180 320z" />
<glyph unicode="&#x205f;" horiz-adv-x="496" />
<glyph unicode="&#xe000;" horiz-adv-x="1105" d="M0 0v1106h1106v-1106h-1106z" />
</font>
</defs>
</svg>
